<?xml version="1.0" encoding="UTF-8" standalone="no"?>
<svg
   xmlns:dc="http://purl.org/dc/elements/1.1/"
   xmlns:cc="http://creativecommons.org/ns#"
   xmlns:rdf="http://www.w3.org/1999/02/22-rdf-syntax-ns#"
   xmlns:svg="http://www.w3.org/2000/svg"
   xmlns="http://www.w3.org/2000/svg"
   version="1.1"
   id="svg2"
   viewBox="0 0 290.67624 32.773992"
   height="9.2495489mm"
   width="82.035294mm">
  <defs
     id="defs4">
    <filter
       id="filter4931"
       style="color-interpolation-filters:sRGB">
      <feGaussianBlur
         id="feGaussianBlur4933"
         stdDeviation="1.3"
         in="SourceGraphic"
         result="result1" />
      <feTurbulence
         id="feTurbulence4935"
         baseFrequency="0.034"
         numOctaves="4"
         result="result0" />
      <feDisplacementMap
         id="feDisplacementMap4937"
         in2="result0"
         in="result1"
         xChannelSelector="R"
         yChannelSelector="G"
         scale="19.6"
         result="result2" />
      <feColorMatrix
         id="feColorMatrix4939"
         result="result3"
         values="2 0 0 0 0 0 2 0 0 0 0 0 2 0 0 0 0 0 0.7 0" />
      <feGaussianBlur
         id="feGaussianBlur4941"
         stdDeviation="1.1"
         in="SourceGraphic"
         result="result4" />
      <feComposite
         id="feComposite4943"
         in2="result3"
         in="result4" />
    </filter>
    <filter
       id="filter6589"
       height="1.3"
       y="-0.15000001"
       width="1.3"
       x="-0.15000001"
       style="color-interpolation-filters:sRGB">
      <feGaussianBlur
         id="feGaussianBlur6591"
         result="blur1"
         stdDeviation="1.21 1.77"
         in="SourceGraphic" />
      <feTurbulence
         id="feTurbulence6593"
         result="turbulence"
         seed="0"
         numOctaves="1"
         baseFrequency="0.0714832"
         type="turbulence" />
      <feDisplacementMap
         id="feDisplacementMap6595"
         result="map"
         scale="0"
         yChannelSelector="G"
         xChannelSelector="R"
         in2="turbulence"
         in="blur1" />
      <feGaussianBlur
         id="feGaussianBlur6597"
         result="blur2"
         stdDeviation="2.34"
         in="map" />
      <feComposite
         id="feComposite6599"
         result="composite"
         operator="xor"
         in2="map"
         in="blur2" />
    </filter>
    <filter
       id="filter6589-9"
       height="1.3"
       y="-0.15000001"
       width="1.3"
       x="-0.15000001"
       style="color-interpolation-filters:sRGB">
      <feGaussianBlur
         id="feGaussianBlur6591-9"
         result="blur1"
         stdDeviation="1.21 1.77"
         in="SourceGraphic" />
      <feTurbulence
         id="feTurbulence6593-5"
         result="turbulence"
         seed="0"
         numOctaves="1"
         baseFrequency="0.0714832"
         type="turbulence" />
      <feDisplacementMap
         id="feDisplacementMap6595-2"
         result="map"
         scale="0"
         yChannelSelector="G"
         xChannelSelector="R"
         in2="turbulence"
         in="blur1" />
      <feGaussianBlur
         id="feGaussianBlur6597-1"
         result="blur2"
         stdDeviation="2.34"
         in="map" />
      <feComposite
         id="feComposite6599-3"
         result="composite"
         operator="xor"
         in2="map"
         in="blur2" />
    </filter>
    <filter
       id="filter6589-9-5"
       height="1.3"
       y="-0.15000001"
       width="1.3"
       x="-0.15000001"
       style="color-interpolation-filters:sRGB">
      <feGaussianBlur
         id="feGaussianBlur6591-9-8"
         result="blur1"
         stdDeviation="1.21 1.77"
         in="SourceGraphic" />
      <feTurbulence
         id="feTurbulence6593-5-5"
         result="turbulence"
         seed="0"
         numOctaves="1"
         baseFrequency="0.0714832"
         type="turbulence" />
      <feDisplacementMap
         id="feDisplacementMap6595-2-7"
         result="map"
         scale="0"
         yChannelSelector="G"
         xChannelSelector="R"
         in2="turbulence"
         in="blur1" />
      <feGaussianBlur
         id="feGaussianBlur6597-1-3"
         result="blur2"
         stdDeviation="2.34"
         in="map" />
      <feComposite
         id="feComposite6599-3-3"
         result="composite"
         operator="xor"
         in2="map"
         in="blur2" />
    </filter>
    <filter
       id="filter6589-9-5-9"
       height="1.3"
       y="-0.15000001"
       width="1.3"
       x="-0.15000001"
       style="color-interpolation-filters:sRGB">
      <feGaussianBlur
         id="feGaussianBlur6591-9-8-5"
         result="blur1"
         stdDeviation="1.21 1.77"
         in="SourceGraphic" />
      <feTurbulence
         id="feTurbulence6593-5-5-5"
         result="turbulence"
         seed="0"
         numOctaves="1"
         baseFrequency="0.0714832"
         type="turbulence" />
      <feDisplacementMap
         id="feDisplacementMap6595-2-7-3"
         result="map"
         scale="0"
         yChannelSelector="G"
         xChannelSelector="R"
         in2="turbulence"
         in="blur1" />
      <feGaussianBlur
         id="feGaussianBlur6597-1-3-8"
         result="blur2"
         stdDeviation="2.34"
         in="map" />
      <feComposite
         id="feComposite6599-3-3-6"
         result="composite"
         operator="xor"
         in2="map"
         in="blur2" />
    </filter>
    <filter
       id="filter4521"
       style="color-interpolation-filters:sRGB">
      <feGaussianBlur
         id="feGaussianBlur4523"
         result="fbSourceGraphic"
         stdDeviation="0.62 0.01" />
      <feColorMatrix
         id="feColorMatrix4525"
         values="0 0 0 -1 0 0 0 0 -1 0 0 0 0 -1 0 0 0 0 1 0"
         in="fbSourceGraphic"
         result="fbSourceGraphicAlpha" />
      <feGaussianBlur
         in="fbSourceGraphic"
         result="blur"
         stdDeviation="0.62 0.01"
         id="feGaussianBlur4527" />
    </filter>
    <filter
       id="filter4521-7"
       style="color-interpolation-filters:sRGB">
      <feGaussianBlur
         id="feGaussianBlur4523-0"
         result="fbSourceGraphic"
         stdDeviation="0.62 0.01" />
      <feColorMatrix
         id="feColorMatrix4525-5"
         values="0 0 0 -1 0 0 0 0 -1 0 0 0 0 -1 0 0 0 0 1 0"
         in="fbSourceGraphic"
         result="fbSourceGraphicAlpha" />
      <feGaussianBlur
         in="fbSourceGraphic"
         result="blur"
         stdDeviation="0.62 0.01"
         id="feGaussianBlur4527-1" />
    </filter>
    <filter
       id="filter4521-7-4"
       style="color-interpolation-filters:sRGB">
      <feGaussianBlur
         id="feGaussianBlur4523-0-5"
         result="fbSourceGraphic"
         stdDeviation="0.62 0.01" />
      <feColorMatrix
         id="feColorMatrix4525-5-4"
         values="0 0 0 -1 0 0 0 0 -1 0 0 0 0 -1 0 0 0 0 1 0"
         in="fbSourceGraphic"
         result="fbSourceGraphicAlpha" />
      <feGaussianBlur
         in="fbSourceGraphic"
         result="blur"
         stdDeviation="0.62 0.01"
         id="feGaussianBlur4527-1-2" />
    </filter>
  </defs>
  <metadata
     id="metadata7">
    <rdf:RDF>
      <cc:Work
         rdf:about="">
        <dc:format>image/svg+xml</dc:format>
        <dc:type
           rdf:resource="http://purl.org/dc/dcmitype/StillImage" />
        <dc:title></dc:title>
      </cc:Work>
    </rdf:RDF>
  </metadata>
  <g
     transform="translate(-209.26221,-161.56118)"
     id="layer1">
    <flowRoot
       style="font-style:normal;font-variant:normal;font-weight:800;font-stretch:normal;font-size:40px;line-height:125%;font-family:storm;-inkscape-font-specification:'storm Ultra-Bold';letter-spacing:0px;word-spacing:0px;fill:#000000;fill-opacity:1;stroke:none;stroke-width:1px;stroke-linecap:butt;stroke-linejoin:miter;stroke-opacity:1"
       id="flowRoot4144"
       xml:space="preserve"><flowRegion
         id="flowRegion4146"><rect
           style="font-style:normal;font-variant:normal;font-weight:800;font-stretch:normal;font-family:storm;-inkscape-font-specification:'storm Ultra-Bold'"
           y="465.46356"
           x="384.86813"
           height="82.832512"
           width="233.34525"
           id="rect4148" /></flowRegion><flowPara
         id="flowPara4150" /></flowRoot>    <g
       id="flowRoot4275-8"
       style="font-style:normal;font-weight:normal;font-size:40px;line-height:125%;font-family:sans-serif;letter-spacing:0px;word-spacing:0px;fill:#000000;fill-opacity:1;stroke:none;stroke-width:1px;stroke-linecap:butt;stroke-linejoin:miter;stroke-opacity:1"
       transform="translate(-28.353801,-226.836)">
      <path
         id="path4187"
         style="font-style:normal;font-variant:normal;font-weight:800;font-stretch:normal;font-family:storm;-inkscape-font-specification:'storm Ultra-Bold'"
         d="m 263.81602,420.61117 -10.28,0 q 0.24,-0.08 0.84,-0.52 l 5.88,-0.12 q -0.04,-0.04 -4.52,-0.16 -0.68,-0.12 -1.8,-0.32 1,0 1.68,-0.12 -0.04,-0.04 -0.64,-0.12 -0.6,-0.08 -0.8,-0.44 0.08,-0.4 0.44,-0.6 0.64,0.04 1.72,-0.16 -0.4,-0.16 -1.48,-0.12 0.48,0.04 0.76,-0.12 -0.08,-0.08 -0.56,-0.08 0.16,0.04 0.64,-0.16 -0.28,-0.16 -0.52,-0.36 -0.2,-0.12 -0.6,0 0.4,0 0.92,-0.2 -0.36,-0.08 -0.76,-0.24 0.08,-0.4 -0.28,-0.48 0.24,-0.08 0.8,-0.24 -0.12,-0.04 -0.52,-0.4 0.4,-0.04 1.12,-0.24 -0.12,-0.12 -0.6,-0.08 0.6,0 1.08,-0.12 -0.08,-0.04 -0.84,-0.16 -0.56,-0.04 -0.48,-0.4 0.36,-0.08 1.08,-0.4 -0.16,-0.12 -1.08,-0.12 0.2,0 1.16,-0.24 -0.4,-0.24 -0.76,-0.24 0.52,0 0.84,-0.12 -0.36,-0.08 -1.04,-0.36 0.48,-0.08 1.6,-0.24 -0.6,-0.24 -1.44,-0.24 0.04,0 0.56,-0.72 0.08,-0.12 0.72,-0.36 -0.04,-0.04 -0.28,-0.12 -0.2,-0.08 -0.24,-0.12 0.68,0.04 1.04,-0.12 -0.48,-0.12 -1.56,-0.48 0.44,-0.04 1.28,-0.24 -0.36,-0.04 -0.92,-0.32 1.28,-0.2 3.16,-0.48 -1.04,-0.08 -3.08,-0.24 0.16,0.04 0.64,-0.16 -0.24,0 -0.68,-0.36 1.4,0.04 2.12,-0.08 -0.56,-0.12 -2.08,-0.12 l 3.36,-0.36 q -1.04,-0.24 -2.24,-0.24 0.2,-0.08 1.04,-0.36 -0.56,-0.12 -1.76,-0.12 0.6,-0.08 1.84,-0.24 -1.84,-0.44 -4.92,-0.32 l -2.84,13.36 -10.4,0 q 0.2,0 0.64,-0.16 -0.2,-0.08 -0.68,-0.24 0.16,0 0.44,-0.16 0.28,-0.16 0.36,-0.2 0,-0.2 -0.24,-0.16 -0.24,0.04 -0.24,-0.04 0,-0.12 0.32,-0.6 0.16,-0.04 0.68,-0.28 -0.24,-0.08 -0.84,-0.08 0.32,-0.36 0.64,-1.12 0.16,-0.16 0.6,-0.12 0.44,0.04 0.68,-0.08 -0.64,-0.08 -1.6,-0.28 1.2,0.04 1.96,-0.12 -0.32,-0.16 -0.8,-0.12 -0.52,0.04 -0.64,0 -0.32,-0.12 -0.28,-0.64 0.28,-0.08 0.92,-0.28 -0.28,-0.16 -0.88,-0.12 0.16,0.04 0.6,-0.12 -0.04,-0.08 -0.24,-0.2 -0.2,-0.12 -0.24,-0.2 1.2,0 1.64,-0.08 -0.52,-0.04 -1.64,-0.32 0.12,-0.28 0.76,-0.52 -0.2,-0.08 -0.6,-0.24 1.24,-0.08 3.84,-0.24 -3.32,-0.2 -7.68,-0.52 0.04,-0.08 2.12,-0.12 2.04,-0.08 2.04,-0.2 0.32,-0.08 0.96,-0.36 -0.36,-0.04 -1,-0.24 0.32,-0.04 0.84,-0.16 0.56,-0.16 0.88,-0.2 -0.12,-0.04 -0.36,0 -0.2,0.04 -0.24,0 -0.16,0 -0.12,-0.2 -0.28,-0.08 -0.84,-0.24 0.56,-0.48 1.52,-0.48 1.36,-0.04 1.76,-0.16 -0.88,-0.04 -2.68,-0.36 0.16,-0.52 0.64,-0.68 -1.2,-0.36 -2.72,-0.8 0.2,0.04 1.32,0.08 1.2,0.04 1.44,-0.04 -0.12,-0.12 -0.6,-0.08 0.88,0 1.4,-0.16 -0.04,0 -0.6,-0.12 -0.56,-0.12 -0.52,-0.32 0.16,-0.04 0,-0.24 -0.08,-0.12 -0.16,-0.28 0.52,-0.04 1.36,-0.2 -0.16,-0.12 -1.08,-0.12 1.24,0 1.88,-0.12 -0.56,-0.12 -2.08,-0.12 1.28,0 3.76,-0.12 -1.08,-0.08 -3.28,-0.24 0.4,-0.04 1.48,-0.36 -0.52,-0.08 -1.6,-0.24 0.72,0.04 1.36,-0.12 -0.52,-0.24 -1.44,-0.24 0.16,-0.04 0.56,-0.12 0.44,-0.08 0.72,-0.2 -0.28,-0.04 -0.6,-0.24 -0.08,-0.12 -0.36,-0.52 0.44,-0.08 1.32,-0.24 -0.16,-0.12 -1.08,-0.12 0.64,0 1.16,-0.16 -0.44,-0.2 -1.24,-0.2 0.6,0 1.44,-0.24 -0.2,-0.04 -0.64,-0.08 -0.44,-0.08 -0.64,-0.12 0.24,-0.08 0.8,-0.24 -0.28,-0.04 -0.64,-0.4 0.84,0.04 1.96,-0.12 -0.16,-0.12 -0.68,-0.12 -0.64,0.04 -0.76,0 -0.28,-0.08 -0.36,-0.32 0.16,-0.24 0.36,-0.28 0.4,-0.08 0.4,-0.12 -2.04,-0.28 -4.36,-0.72 0,0 2.28,0.24 2.12,0.2 2.32,0.12 -0.36,-0.04 -1,-0.24 0.84,-0.04 2.6,-0.2 -0.88,-0.2 -2.24,-0.12 0.4,-0.08 1.16,-0.12 0.76,-0.08 1.12,-0.12 -0.8,-0.08 -2.48,-0.24 0.04,0 1.12,0.12 1.08,0.12 1.8,0.12 1.64,0 1.96,-0.6 -0.08,-0.08 -4,-0.44 0.28,-0.08 0.84,-0.28 -0.52,-0.08 -1.28,-0.24 1,0.04 1.8,-0.12 -0.6,-0.16 -1.64,-0.64 0.72,0.04 1.08,-0.08 -2.28,-0.12 -4.84,-0.36 2.24,0 4.92,-0.12 -0.28,-0.08 -0.68,-0.28 0.32,0.08 0.76,-0.08 -0.36,-0.04 -1.08,-0.24 0.6,-0.04 1.8,-0.24 -0.08,-0.04 -3.04,-0.16 -2.72,-0.12 -2.68,-0.48 1.16,0 2.28,0 2.8,0.08 2.96,-0.04 -0.48,-0.28 -0.76,-0.28 0.88,0 1.6,-0.12 -0.12,-0.28 -0.68,-0.24 -0.84,0 -0.92,0 0.68,0 1.56,-0.24 -0.2,-0.16 -0.44,-0.16 -0.12,0 -0.32,0.04 -0.16,0.04 -0.24,0.04 -0.24,0 -0.24,-0.44 0,-0.2 0.04,-0.52 0.04,-0.12 0.2,-0.2 0.08,-0.08 -0.08,-0.44 0.24,-0.16 0.6,-0.2 0.52,0 0.6,-0.04 -0.28,-0.24 -0.52,-0.24 -0.08,0 -0.24,0.04 -0.12,0.04 -0.12,0.04 -0.2,0 -0.2,-0.92 -0.04,-0.08 -0.08,-0.12 0,-0.12 0.36,-0.12 0.52,-0.04 0.64,-0.08 -0.36,-0.08 -0.92,-0.24 0.8,-0.08 2.36,-0.24 -0.44,-0.08 -3.24,-0.2 -2.76,-0.12 -3.4,-0.08 0.04,-0.6 2.56,-0.64 2.76,0 2.8,-0.04 -0.24,-0.08 -0.88,-0.08 0.16,-0.2 0.72,-0.64 -0.24,-0.24 -0.48,-0.24 0.2,0 1.76,-0.24 -0.32,-0.16 -1.6,-0.08 0.24,-0.08 0.56,-0.44 0.2,-0.16 0.48,-0.16 0.28,0 0.44,-0.12 -2.24,-0.12 -4.76,-0.32 l 13.76,0.04 -2.4,11.32 q 1.92,0.8 3.32,0.8 0.56,0 0.56,-0.28 0,-0.2 -0.28,-0.52 0.72,0 2.28,-0.2 -0.28,-0.04 -1.16,-0.12 -0.88,-0.08 -1.16,-0.12 0.88,-0.24 1.72,-0.36 -0.64,-0.08 -1.76,-0.24 1.2,0.04 2.28,-0.12 -0.4,-0.16 -1.64,-0.12 0.56,-0.04 1.6,-0.12 1.04,-0.08 1.6,-0.12 -0.16,-0.04 -2.08,-0.2 -1.24,-0.12 -1.68,-0.4 0.72,0 1.08,-0.12 -0.2,-0.12 -0.8,-0.48 0.56,-0.08 1.4,-0.24 -0.28,-0.08 -0.64,-0.2 0.16,-0.04 0.16,-0.04 0,-0.08 -0.92,-0.08 l 0.16,-0.8 q 0.8,0.08 1.32,-0.08 -0.4,-0.08 -1.08,-0.36 0.32,0.04 0.76,-0.12 -0.36,-0.04 -0.8,-0.36 0.64,-0.04 2.12,-0.24 -0.32,-0.04 -0.8,-0.24 -0.48,-0.2 -0.92,-0.2 1.08,0 1.84,-0.12 -1.04,-0.24 -1.88,-0.24 0.24,-0.08 0.8,-0.24 -0.28,-0.16 -0.72,-0.12 0.96,0 1.64,-0.16 -0.04,-0.04 -0.24,-0.08 -0.16,-0.04 -0.16,-0.08 0,-0.2 -0.4,-0.28 -0.36,-0.04 -0.72,0 0.56,-0.2 1.6,-0.24 1.2,-0.08 1.76,-0.24 -1.08,-0.08 -3.36,-0.24 0.64,0 1.08,-0.16 -0.04,0 -0.36,-0.08 -0.32,-0.08 -0.36,-0.64 0,0 0.2,0.04 0.2,0.04 0.24,0.04 0.12,-0.04 0.04,-0.16 -0.4,0 0,-0.12 0.4,-0.12 0.76,-0.24 -0.4,-0.24 -0.92,-0.24 0.84,0 1.32,-0.12 -0.68,-0.08 -1.56,-0.36 0.56,-0.08 1.52,-0.24 -0.2,-0.08 -0.52,-0.24 0.16,-0.04 0.64,-0.24 -0.52,-0.16 -1.2,-0.12 0.4,0.08 1,-0.64 l 9.16,-0.12 -6.8,31.96 z" />
      <path
         id="path4189"
         style="font-style:normal;font-variant:normal;font-weight:800;font-stretch:normal;font-family:storm;-inkscape-font-specification:'storm Ultra-Bold'"
         d="m 286.49539,420.61117 -15.56,0 q -0.16,0 -2.16,-0.28 -2,-0.28 -2.4,-0.28 5.12,0.12 6.04,0.04 -1.16,-0.12 -3.52,-0.12 1.4,0.04 2.56,-0.16 -0.2,-0.12 -0.8,-0.12 -0.76,0.04 -0.92,0 -0.4,-0.08 -0.56,-0.4 0.44,-0.12 1.24,-0.28 -0.48,-0.16 -1.32,-0.12 0.16,0.04 0.64,-0.12 -0.24,-0.24 -0.64,-0.24 1.28,0 2.04,-0.12 -0.28,-0.08 -0.96,-0.12 -0.64,-0.04 -0.92,-0.12 0.28,-0.24 0.76,-0.24 0.48,0 0.68,-0.12 -0.52,-0.12 -1.44,-0.36 0.52,0 1.12,-0.24 -0.12,-0.12 -1,-0.28 0.32,-0.12 0.96,-0.36 0.04,-0.16 -0.52,-0.16 0.4,-0.76 1.24,-1 -0.52,-0.16 -1.32,-0.08 0.4,-0.16 1.12,-0.4 -0.28,-0.12 -0.72,-0.44 0.36,-0.08 1.16,-0.28 -0.16,-0.08 -0.6,-0.04 -0.4,0 -0.4,-0.12 0.04,-0.08 0.12,-0.24 -0.16,-0.12 -0.16,-0.16 0,-0.04 0.36,-0.04 0.36,-0.04 0.56,-0.16 -1.16,0 -2.4,-0.2 1.12,-0.24 2.56,-0.56 -0.52,-0.24 -0.76,-0.48 l 0.92,-0.28 q -0.04,-0.04 -0.48,-0.28 0,-0.2 -1.08,-0.36 -1.08,-0.2 -1.16,-0.24 2.6,0.12 2.72,0.08 -0.12,-0.12 -0.64,-0.12 1.12,0 1.76,-0.12 -0.6,-0.12 -1.84,-0.12 0.2,0 0.48,-0.32 -0.12,-0.2 -0.12,-0.28 0,-0.08 0.2,-0.08 0.24,0 0.4,-0.04 -0.08,-0.16 -0.56,-0.12 1.8,0 2.84,-0.12 -0.92,-0.12 -3.12,-0.12 0.88,-0.2 1.6,-0.36 -0.08,-0.04 -1.4,-0.08 -1.28,-0.04 -1.52,-0.4 0.24,-0.16 1.32,-0.24 1.12,-0.12 1.32,-0.24 -0.28,-0.04 -0.84,-0.24 0.08,0 0.4,-0.04 0.2,0 0.2,-0.08 0,-0.04 -0.04,-0.12 -0.24,0 -0.24,-0.08 0,-0.04 0.88,-0.4 -0.28,-0.12 -1.08,-0.12 1.56,0 2.48,-0.12 -0.68,-0.12 -2.36,-0.12 0.52,0.04 0.92,-0.12 -0.28,-0.12 -0.88,-0.12 0.76,0 0.96,-0.24 0.24,0 0.64,-0.2 -0.08,-0.08 -0.8,-0.12 -0.52,-0.04 -0.52,-0.32 0.4,0 1.04,-0.04 0.28,-0.04 0.4,-0.12 -0.4,-0.04 -1.36,-0.24 0.24,-0.12 0.64,-0.48 -1.28,-0.12 -2.68,-0.4 5.72,0 5.44,0.04 -1,-0.12 -3.28,-0.12 0.48,0 1.08,-0.12 -0.36,-0.08 -1,-0.28 0.24,0 0.72,-0.12 0.48,-0.16 0.88,-0.2 -0.24,-0.12 -2.12,-0.36 -1.88,-0.28 -2.32,-0.24 0.32,0.08 1.72,0.24 1.64,0.2 1.84,0.12 -0.28,-0.24 -0.64,-0.36 0.4,-0.08 1.24,-0.24 -0.28,-0.16 -1.04,-0.12 0.16,-0.04 0.56,-0.12 0.4,-0.08 0.56,-0.12 -0.2,-0.08 -0.72,-0.24 1.12,0 1.52,-0.12 -0.36,-0.12 -1.44,-0.12 0.52,-0.04 1.68,-0.24 -0.32,-0.08 -2.56,-0.2 -2.24,-0.12 -2.72,-0.08 1.92,0 4.16,-0.08 -0.4,-0.4 -0.68,-0.36 0.32,-0.04 0.92,-0.08 0.6,-0.08 0.92,-0.16 -0.64,-0.16 -1.92,-0.12 0.56,-0.12 1.6,-0.36 -0.16,-0.24 -0.92,-0.24 1.72,0 2.6,-0.12 -1.08,-0.04 -3.08,-0.24 0.88,0.08 1.52,-0.12 -0.52,-0.08 -1.44,-0.24 0.8,0.04 1.68,-0.12 0,0 -2.24,-0.16 -2.04,-0.16 -2.12,-0.6 0.2,-0.16 2.28,-0.16 2.08,-0.04 2.32,-0.12 -0.52,-0.08 -1.6,-0.28 0.96,0 3.04,-0.2 -0.28,-0.08 -2.6,-0.4 2.16,0.08 3.72,-0.08 -1.12,-0.12 -3.68,-0.12 0.44,0 0.76,-0.12 -0.2,-0.2 -0.96,-0.36 0.56,0 1.4,-0.24 -0.28,-0.16 -0.88,-0.12 1.36,0 2.12,-0.12 -0.68,-0.12 -2.52,-0.12 1.08,-0.28 3.84,-0.48 -1.12,-0.08 -3.52,-0.24 0.12,-0.08 1.24,-0.36 -0.12,-0.12 -2.92,-0.24 -2.6,-0.16 -2.64,-0.44 0.16,-0.16 2.88,-0.16 2.76,-0.04 2.88,-0.12 -0.36,-0.04 -1.08,-0.28 0.44,0.04 1.28,-0.24 0.56,0.08 0.88,-0.16 -1.2,-0.28 -2.04,-0.4 0.68,0.04 1.08,-0.12 -0.28,-0.12 -1.16,-0.12 0.52,0 1.52,-0.12 -0.2,-0.04 -2.64,-0.12 -2.4,-0.12 -2.6,-0.16 4.64,0 5.2,-0.2 -0.24,-0.08 -0.48,-0.28 0.36,-0.04 1.16,-0.2 -1.88,-0.04 -4.28,-0.32 0.36,0.04 2,-0.04 1.64,-0.12 1.96,-0.24 -0.52,-0.16 -1.32,-0.12 0.48,0 1.36,-0.12 -0.56,-0.04 -1.4,-0.36 l 1.56,-0.12 q 0.04,-0.4 -0.24,-0.48 -0.16,-0.04 -0.6,0.04 -0.44,0.04 -0.6,-0.04 0.64,0.04 0.92,-0.08 -1.12,-0.08 -2.2,-0.24 0.16,0 1.36,-0.04 0.76,0 1.08,-0.16 -2.52,-0.12 -5.28,-0.4 l 1.08,-0.12 q -0.12,-0.2 -0.4,-0.24 -0.44,-0.04 -0.44,-0.04 l 21.28,0.08 -1.32,6.32 -6.84,0 -1.32,6.12 6.4,0 -1.28,5.92 q -6.44,0 -6.4,0.04 l -1.52,7 7.64,0 -1.36,6.48 z" />
      <path
         id="path4191"
         style="font-style:normal;font-variant:normal;font-weight:800;font-stretch:normal;font-family:storm;-inkscape-font-specification:'storm Ultra-Bold'"
         d="m 315.72289,420.65117 -4,0 0,-0.16 q -2.52,-0.16 -5.16,-0.12 0.28,0 0.48,-0.2 -0.08,-0.08 -1.92,-0.2 -1.56,-0.12 -1.96,-0.12 0.84,0 1.64,-0.04 1.8,0.04 1.88,-0.04 -0.12,-0.12 -0.28,-0.12 0.8,0.04 1.68,-0.12 -0.68,-0.08 -2.04,-0.24 0.84,0.04 1.52,-0.12 -0.6,-0.04 -1.44,-0.24 0.36,-0.24 0.04,-0.24 0.56,0.04 1.2,-0.12 -0.48,-0.04 -1.28,-0.24 1.24,0.04 1.96,-0.12 -0.76,-0.16 -2,-0.36 1.2,0.04 2.4,-0.12 l 0,-0.08 q -1.2,-0.16 -2.48,-0.16 0.52,0 1.4,-0.24 -0.16,-0.12 -1.12,-0.12 0.4,0 0.56,-0.12 -0.12,-0.08 -0.4,-0.08 0.6,-0.08 1.88,-0.12 1.28,-0.08 1.88,-0.16 -1.64,-0.16 -3.84,-0.08 0.68,0.04 1.36,-0.12 -0.56,-0.12 -1.6,-0.12 0.92,0 1.8,-0.16 -0.04,-0.28 -0.56,-0.2 -0.84,0.08 -0.96,0.04 -0.16,-0.04 -0.28,-0.04 0.36,0 1,-0.24 -0.2,-0.08 -0.64,-0.12 -0.44,-0.08 -0.64,-0.12 0.32,-0.08 0.96,-0.28 -0.16,-0.48 -0.92,-0.56 0.64,0 1.2,-0.12 -0.2,-0.08 -0.72,-0.12 -0.52,-0.08 -0.72,-0.12 0.48,0 0.2,-0.28 0.92,0.04 2.72,-0.08 -1.2,-0.16 -2.84,0.04 l 0.16,-0.68 q 0.92,0.04 1.48,-0.08 -0.08,-0.08 -1.32,-0.36 2.52,0 3.68,-0.12 -0.88,-0.12 -2.84,-0.12 0.56,0.04 0.92,-0.12 -0.76,-0.12 -2.12,-0.12 0.64,0 3.12,-0.24 -1.16,-0.16 -2.96,-0.12 0.52,-0.04 1.68,-0.24 -0.12,-0.12 -1.16,-0.12 0.36,-0.04 1.2,-0.08 0.84,-0.08 1.24,-0.16 -0.52,-0.04 -1.64,-0.08 -1.08,-0.08 -1.6,-0.16 0.2,-0.04 2.44,-0.36 -0.72,-0.12 -2.36,-0.12 0.84,-0.04 2.6,-0.24 -0.56,-0.12 -2.52,-0.08 0.12,-0.16 0.4,-0.4 0.04,-0.2 -0.56,-0.2 0.08,-0.2 0.68,-0.4 -0.16,-0.04 -0.6,-0.16 l -4.64,11.32 -9.96,0 q 0.04,-0.2 0.4,-0.2 0,-0.2 0.08,-0.6 2.8,0 3.56,-0.08 -1.24,-0.08 -3.64,-0.36 1.56,0.04 2.56,-0.12 -0.4,-0.08 -2.2,-0.08 0,-0.08 -0.12,-0.28 0.4,-0.08 1.12,-0.24 -0.08,-0.04 -0.28,-0.12 -0.2,-0.08 -0.28,-0.12 0.48,0 0.64,-0.12 0.04,-0.16 -0.12,-0.24 -0.32,-0.2 -0.36,-0.24 0.88,0.04 1.48,-0.12 -0.52,-0.04 -1.6,-0.24 0.4,-0.04 1.16,-0.08 0.76,-0.08 1.16,-0.16 -0.56,-0.12 -1.64,-0.12 0.6,0.04 1.24,-0.12 -0.52,-0.04 -1.56,-0.36 0.04,0 0.04,-0.04 0,-0.04 -0.72,-0.28 -0.72,-0.24 -0.72,-0.4 0,-0.08 0.12,-0.16 -0.12,-0.12 -0.56,-0.12 0.16,0 0.32,-0.08 -0.12,-0.04 -0.32,-0.2 -0.2,-0.2 -0.36,-0.2 0.52,0.04 0.92,-0.12 -0.36,-0.04 -0.84,-0.24 0.68,0.04 1.4,-0.12 0,-0.2 -0.16,-0.24 -0.16,-0.04 -0.48,-0.04 -0.44,0.08 -0.56,0.08 0.48,0 1.08,-0.16 -0.32,-0.12 -0.8,-0.36 -0.2,0 2.44,0.08 2.04,0.08 2.44,0 -2.12,-0.16 -4.96,-0.44 0.44,0 0.64,-0.12 0.04,-0.2 -0.28,-0.2 0.52,0 0.92,-0.12 -0.28,-0.16 -0.84,-0.12 0.28,0 0.44,-0.12 -0.12,-0.12 -0.32,-0.12 5,0 4.8,0.04 -0.08,-0.04 -0.72,-0.16 -0.4,-0.08 -0.32,-0.48 0.36,0.08 0.72,-0.08 -0.4,-0.08 -1.12,-0.24 2.36,0 3.44,-0.12 -1,-0.12 -3.16,-0.12 0.2,0 0.4,-0.12 -0.12,-0.12 -0.44,-0.12 1.12,0.04 1.96,-0.12 -0.72,-0.08 -1.84,-0.36 0.64,0.04 1.2,-0.12 -0.36,-0.04 -1.12,-0.24 0.64,0.04 1.04,-0.12 -0.08,-0.12 -0.56,-0.12 0.32,-0.04 1,-0.16 0.72,-0.12 1,-0.2 -0.88,-0.16 -2.04,-0.12 1.04,0.04 2.12,-0.12 -0.88,-0.16 -2.24,-0.08 0.48,-0.08 1.44,-0.16 1,-0.08 1.48,-0.12 -0.2,-0.2 -0.6,-0.24 -0.28,-0.04 -0.72,0 -0.52,0.08 -0.56,0.08 0.04,-0.2 0.12,-0.36 0.08,-0.12 -0.2,-0.2 0.64,0.04 0.92,-0.08 -0.2,-0.08 -0.64,-0.12 -0.44,-0.08 -0.64,-0.16 2.48,0 3.6,-0.08 -0.96,-0.08 -2.92,-0.28 0.72,0.08 1.36,-0.08 -0.28,-0.08 -0.88,-0.12 -0.6,-0.08 -0.88,-0.12 0.48,-0.08 1.36,-0.12 0.92,-0.08 1.4,-0.12 -0.76,-0.08 -2.2,-0.2 l 7,0 q -2.28,-0.16 -6.96,-0.16 0.44,0 0.76,-0.12 -0.08,-0.08 -0.36,-0.12 -0.28,-0.04 -0.32,-0.12 0.24,-0.44 0.84,-0.52 0.64,-0.12 1.24,-0.24 -0.16,-0.24 -0.76,-0.2 -0.92,0 -1,0 0.68,0.04 1.08,-0.12 -0.2,-0.08 -0.68,-0.24 0.32,0 1.24,-0.24 -0.52,-0.16 -1.32,-0.12 0.48,0.04 1.08,-0.12 -0.24,-0.12 -1.2,-0.12 0.28,-0.16 1.04,-0.48 -0.2,-0.24 -0.64,-0.24 1.08,0 1.72,-0.12 -0.24,-0.12 -0.84,-0.08 0.04,-0.04 0.32,-0.16 -0.24,-0.24 -0.72,-0.24 1.96,-0.28 5.04,-0.48 -0.08,-0.08 -4.44,-0.08 0.16,-0.08 -0.36,-0.24 l -0.2,0 0.36,-0.28 q -0.12,-0.12 -0.36,-0.12 2.48,0 3.84,-0.12 -1.16,-0.12 -3.72,-0.12 0.52,0.04 0.92,-0.12 -0.28,-0.12 -1.08,-0.12 1.56,0 2.48,-0.12 -0.72,-0.08 -2.36,-0.08 0.48,0 0.76,-0.12 -0.44,-0.2 -4.12,-0.2 0.44,0 0.76,-0.12 -0.28,-0.12 -1.04,-0.12 0.52,-0.2 1.76,-0.52 -0.4,-0.16 -1.48,-0.08 5.96,0 8.28,-0.2 -3.84,-0.08 -8.36,-0.16 0.64,0.04 1.52,-0.12 -0.4,-0.12 -1.52,-0.12 0.36,0 0.56,-0.12 -0.08,-0.08 -0.2,-0.16 -0.12,-0.08 -0.2,-0.12 0.32,0.08 0.76,-0.12 -0.08,-0.12 -0.72,-0.08 2.92,-0.08 7.24,-0.32 -0.04,-0.04 -7.32,-0.04 0.88,0 2.32,-0.36 -0.28,-0.04 -2.2,-0.12 -1.64,-0.12 -1.64,-0.16 0.16,-0.04 1.08,-0.08 0.6,0 1.24,-0.12 -1.4,-0.2 -1.4,-0.32 0,-0.04 0.2,-0.04 2.88,-0.08 7,-0.28 -1.72,-0.2 -7,-0.2 4.68,0.12 6.64,-0.28 -0.72,-0.12 -2.36,-0.12 0.48,0.04 1.08,-0.12 -0.68,-0.04 -2.04,-0.24 0.52,-0.04 1.56,-0.08 1.08,-0.08 1.64,-0.16 -0.92,-0.16 -2.84,-0.12 0.16,0 0.32,-0.12 -0.28,-0.04 -0.8,-0.2 l 0.12,-0.56 q 1,0.2 1.76,0.04 -0.68,-0.04 -1.6,-0.24 0.16,0 0.32,-0.08 -0.28,-0.08 -0.68,-0.28 1.08,0 1.52,-0.12 -0.36,-0.04 -0.96,-0.16 -0.04,-0.16 -0.16,-0.16 l 0.24,-0.48 q -0.12,-0.16 -0.72,-0.12 0.28,-0.16 1.88,-0.4 -0.4,-0.16 -1.48,-0.08 0.48,0 1.08,-0.12 -0.6,-0.08 -1.6,-0.36 0.24,-0.08 0.8,-0.24 -0.12,-0.08 -0.4,-0.24 -0.24,-0.2 -0.36,-0.28 1.24,0 1.96,-0.08 -0.64,-0.12 -2,-0.48 2.16,0.04 3.32,-0.12 -0.44,-0.08 -3.04,-0.2 -2.56,-0.16 -3,-0.2 0.64,0.04 0.92,-0.12 -0.44,-0.12 -1.24,-0.12 1.44,0 2.2,-0.12 -0.72,-0.12 -2.36,-0.12 0.68,0.04 1.36,-0.12 -0.44,-0.04 -1.12,-0.24 0.48,0 0.6,-0.12 -0.36,-0.04 -1,-0.24 1.76,0 2.56,-0.12 -0.96,-0.16 -2.04,-0.12 0.48,0.04 1.08,-0.12 -0.76,-0.32 -1.72,-0.4 l 13.36,0.16 0.4,8.48 q 0.28,-0.32 0.84,-0.36 0.76,-0.04 0.96,-0.08 -0.44,-0.04 -1.16,-0.24 0.16,-0.04 0.52,-0.08 0.4,-0.08 0.56,-0.16 -0.12,-0.04 -0.44,-0.2 -0.28,-0.16 -0.52,-0.16 0.48,0.04 1.08,-0.12 -0.48,-0.2 -1.08,-0.2 0.2,-0.08 0.56,-0.28 -0.2,-0.2 -0.2,-0.28 0.32,0.08 0.76,-0.08 -0.12,-0.12 -0.6,-0.12 1.52,0 2.28,-0.12 -0.68,-0.08 -2.36,-0.08 0.56,-0.2 1.6,-0.52 -0.48,-0.04 -1.32,-0.24 0.56,-0.04 1.56,-0.24 -0.28,-0.12 -0.88,-0.08 0.68,-0.08 2.16,-0.24 -0.36,-0.08 -1.2,-0.12 -0.8,-0.08 -1.16,-0.16 1.28,-0.04 3.96,-0.2 -1.2,-0.12 -3.48,-0.48 0.64,-0.08 1.84,-0.24 -0.44,-0.16 -1.32,-0.16 l 0.92,0 0.32,-0.2 q -0.12,-0.12 -0.36,-0.12 2.48,0 3.84,-0.12 -1.48,-0.12 -4.68,-0.12 0.36,0 0.56,-0.12 -0.24,-0.08 -0.72,-0.28 0.36,0 0.96,-0.16 0.76,-0.24 0.96,-0.28 -0.36,-0.16 -1.64,-0.08 0.4,-0.28 1.6,-0.52 -0.44,-0.08 -1.12,-0.24 1.16,0 1.96,-0.12 -0.12,-0.12 -0.52,-0.12 0.4,0 0.16,-0.28 1.76,0 2.4,-0.08 -1.12,-0.04 -3.4,-0.24 0.04,0 0.16,-0.12 0.12,-0.16 0.36,-0.16 l 7.88,0 -6.56,14.08 1.56,17.88 z" />
      <path
         id="path4193"
         style="font-style:normal;font-variant:normal;font-weight:800;font-stretch:normal;font-family:storm;-inkscape-font-specification:'storm Ultra-Bold'"
         d="m 344.89727,420.93117 -10.44,-0.28 q 0.24,-0.08 0.88,-0.4 -0.08,-0.12 -0.72,-0.08 0.08,-0.04 -0.56,-0.24 -0.64,-0.24 -0.56,-0.28 0.52,0.04 1.04,-0.04 0.8,-0.08 2.48,-0.28 -0.72,-0.16 -2.2,-0.12 0.2,0.04 0.64,-0.12 -0.16,-0.08 -0.36,-0.16 -0.2,-0.12 -0.32,-0.2 0.12,-0.2 0.56,-0.48 -0.12,-0.16 -0.6,-0.12 0.92,0 1.4,-0.12 -0.4,-0.12 -1.32,-0.12 0.12,0.04 0.6,-0.16 -0.04,-0.36 -0.64,-0.44 0.84,-0.12 2.48,-0.36 -0.36,-0.16 -1.04,-0.12 -0.64,0.04 -0.92,-0.04 -0.24,-0.08 -0.32,-0.4 0.24,-0.24 0.64,-0.24 0.28,0 0.48,-0.16 -0.28,-0.12 -0.72,-0.12 1.2,0 1.96,-0.12 -0.36,-0.04 -1.08,-0.08 -0.72,-0.08 -1.08,-0.16 0.68,0.04 1.04,-0.12 -0.6,-0.16 -1.24,-0.16 l -3.64,0 q -1.4,3.76 -1.96,5.72 l -10.64,-0.16 q 0.36,-0.08 1.04,-0.28 -0.64,-0.32 -0.84,-0.32 0.36,-0.08 -0.4,-0.6 -0.4,-0.24 -0.84,-0.52 -0.04,-0.28 1.12,-0.36 1.2,-0.08 1.2,-0.24 0,-0.04 -0.04,-0.08 0.4,0.04 0.76,-0.24 -0.28,-0.12 -0.76,-0.36 l 1.2,-0.28 q -0.2,-0.2 -1.04,-0.2 0.48,0.04 0.8,-0.12 -0.12,-0.08 -0.72,-0.08 0.4,-0.28 1.6,-0.52 -0.64,-0.24 -1.44,-0.24 0.4,-0.04 1.24,-0.24 0,0 -3.32,0.16 -0.04,-0.12 1.28,-0.44 1.36,-0.32 1.28,-0.44 0.56,-0.08 1.72,-0.24 -0.24,-0.08 -0.44,-0.16 0,-0.24 -0.4,-0.24 -0.72,0.04 -0.76,0.04 0.36,-0.04 1.16,-0.08 0.8,-0.08 1.16,-0.16 -0.68,-0.04 -2,-0.24 0.44,-0.04 1.32,-0.24 -2.44,-0.76 -3.72,-0.76 -0.48,0 -0.48,0.12 0,0.44 2.92,0.44 -0.04,0.04 0.48,0.04 0.24,0 0.36,-0.64 -0.12,-0.16 -0.48,-0.36 0.04,-0.04 0.48,-0.08 0.28,0 0.2,-0.2 -0.76,-0.48 -2.12,-0.64 -1.16,-0.12 -1.16,-0.08 0.52,-0.12 4.36,-0.92 -0.28,-0.16 -0.88,-0.12 0.4,0 0.76,-0.12 -0.16,-0.24 -0.6,-0.24 1.12,0 1.72,-0.12 -1.72,-0.36 -3.08,-0.36 -0.72,0 -0.76,0.08 0,0.16 2.08,0.16 -1.12,-0.24 -2.2,-0.8 1.88,-0.08 4.08,-0.28 -0.52,-0.04 -1.28,-0.28 0.04,-0.04 0.8,-0.32 -0.04,-0.04 -0.28,-0.12 -0.24,-0.12 -0.36,-0.24 0.76,0.04 1.32,-0.12 -0.4,-0.08 -1.12,-0.24 0.32,0.04 0.76,-0.12 -0.08,-0.04 -0.24,-0.2 -0.16,-0.16 -0.36,-0.16 0.32,0 1.64,-0.24 -0.16,-0.12 -1.12,-0.12 1.04,0 1.76,-0.12 -0.52,-0.04 -1.4,-0.12 -0.36,-0.04 -0.52,-0.24 0.28,-0.2 0.56,-0.2 0.32,0 0.48,-0.12 -0.32,-0.16 -0.72,-0.16 0.56,0 0.92,-0.12 -0.12,-0.04 -0.4,-0.32 -0.16,-0.12 -0.4,-0.12 0.96,0 1.8,-0.16 -0.12,-0.12 -2.96,-0.04 -2.84,0.08 -2.96,-0.04 -0.08,-0.12 2.24,-0.24 2.48,-0.16 2.64,-0.24 -0.08,-0.08 -0.28,-0.12 -0.2,-0.08 -0.28,-0.16 1.16,0 1.68,-0.08 -0.52,-0.16 -1.32,-0.12 0.28,-0.08 0.96,-0.36 -0.04,-0.04 -0.48,-0.08 -0.28,-0.04 -0.24,-0.32 0.4,-0.08 1.48,-0.32 -0.44,-0.16 -1.48,-0.08 0.32,-0.16 0.68,-0.48 0,-0.04 -0.08,-0.16 -0.48,0 -0.12,-0.08 0.64,-0.08 0.72,-0.16 -0.32,-0.08 -0.8,-0.24 0.6,-0.08 1.8,-0.24 -2.6,-0.12 -5.32,-0.32 0,-0.36 2.04,-0.4 1.56,-0.04 1.8,0 0.28,0 0.8,-0.52 -0.04,-0.08 -0.44,-0.44 0.4,-0.12 1.72,-0.36 -0.48,-0.12 -1.4,-0.36 0.48,0 1.68,-0.24 -0.44,-0.04 -1.28,-0.24 0.52,0 0.52,-0.04 0,-0.04 -0.04,-0.12 0.08,-0.2 0.56,-0.2 0.48,0 0.68,-0.12 -0.16,-0.08 -1,-0.08 0.48,0 1.04,-0.16 -0.64,-0.28 -0.68,-0.2 0.24,-0.04 0.28,-0.08 0,-0.04 -0.84,-0.04 0.48,0 1.04,-0.12 l -1.24,-0.36 q 0.36,-0.08 1.24,-0.24 -3,-0.2 -6.28,-0.48 0.36,-0.36 3.72,-0.52 3.72,-0.16 3.84,-0.2 -0.64,-0.2 -1.76,-0.12 0.56,0.04 1.24,-0.12 -0.52,-0.04 -1.12,-0.4 0.72,0.04 1.08,-0.08 -0.32,-0.16 -0.88,-0.12 1.2,0 1.8,-0.12 -0.56,-0.04 -1.52,-0.24 0.28,-0.04 0.88,-0.24 -0.28,-0.08 -0.84,-0.24 0.32,0 0.96,-0.24 -0.16,-0.04 -0.52,-0.12 -0.36,-0.08 -0.48,-0.12 0.32,-0.08 0.92,-0.12 0.6,-0.08 0.92,-0.12 -0.28,-0.16 -3.68,-0.24 -3.4,-0.08 -3.76,-0.24 3.44,-0.28 7.68,-0.72 -0.4,-0.04 -1.2,-0.28 -0.16,-0.08 -0.16,-0.12 0,-0.08 0.4,-0.12 0.4,-0.04 0.48,-0.08 -0.04,-0.12 -0.32,-0.24 -0.24,-0.12 -0.28,-0.24 0.24,0 0.48,0 0.32,-0.04 0.2,-0.52 0,-0.16 0.32,-0.2 0.24,0 0.48,0.04 0.2,-0.04 0.32,-0.12 -0.28,-0.08 -3.4,-0.16 -2.96,-0.08 -3.4,-0.04 0.04,-0.04 3,-0.24 2.84,-0.2 2.76,-0.32 2,0 2.68,-0.08 -0.92,-0.08 -2.72,-0.4 0.12,0 0.64,-0.12 0.52,-0.16 0.68,-0.16 l 13.76,0 -0.8,32 z m -7.32,-14.28 q -1,0 -1.32,-0.44 0.24,-0.16 0.92,-0.12 -0.88,-0.48 -0.88,-0.52 0,-0.12 0.2,-0.28 0.16,-0.36 0.44,-0.6 -0.16,-0.08 -0.6,-0.4 0.72,-0.28 0.96,-0.24 -0.36,0.04 -0.84,-0.28 0.12,-0.24 0,-0.68 0.56,-0.4 1.56,-0.36 -0.24,0.12 -0.52,0.12 -1,0 -1,-0.72 0,-0.44 0.64,-0.84 -0.44,-0.36 0.16,-0.88 -0.28,0.04 -0.52,-0.16 0.36,-0.12 1.36,-0.16 -0.6,0 -0.88,-0.12 0.24,-0.12 0.76,-0.12 -0.6,0.12 -1.2,-0.24 0.44,-0.24 0.56,-0.24 -0.2,0 -0.32,-0.48 l 0.92,-0.24 q -0.68,0.04 -1,-0.12 0,-0.28 0.16,-0.88 0.72,-0.2 1.12,-0.16 -0.76,0 -1.16,-0.12 0.8,-0.32 1.24,-0.24 -0.24,0 -0.64,-0.08 -0.36,-0.08 -0.56,-0.08 0.08,-0.4 -0.04,-0.76 l -4.8,13.24 4.2,-0.12 q -0.08,0 -0.4,-0.48 0.04,-0.2 0.2,-0.96 l 0.84,0 q -0.4,0 -1.08,-0.16 0.44,-0.12 1.08,-0.08 -0.36,-0.08 -0.96,-0.4 0.32,-0.2 0.8,-0.2 -0.32,-0.08 -0.84,-0.28 0.48,-0.12 1.44,-0.12 z" />
      <path
         id="path4195"
         style="font-style:normal;font-variant:normal;font-weight:800;font-stretch:normal;font-family:storm;-inkscape-font-specification:'storm Ultra-Bold'"
         d="m 412.61977,412.21117 q 0,0.04 -0.72,2.48 -0.24,0.52 -0.8,1.72 -0.44,1.04 -2.32,2.16 -1.84,1.08 -3.44,1.48 -2.84,0.64 -3.88,0.64 -1.24,0 -5.24,-0.52 0.2,0.04 0.6,-0.12 -1.4,-0.24 -2.08,-0.24 0.44,0.04 1,-0.12 -1.6,-0.32 -3.6,-0.32 2.92,0.2 3.24,0.12 -1.64,-0.36 -3.88,-0.36 2.72,0.16 2.8,0.12 -1.52,-0.16 -3.6,-0.44 0.2,-0.08 0.64,-0.12 0.48,-0.08 0.72,-0.12 -1.84,-0.44 -2.88,-0.56 0.12,-0.04 2.04,-0.36 -0.84,-0.12 -2.48,-0.12 0.96,0 1.72,-0.2 -0.56,-0.12 -1.76,-0.12 0.8,0 1.68,-0.24 -0.68,-0.12 -1.96,-0.12 0.6,0.04 1.32,-0.12 -0.12,-0.12 -0.28,-0.12 0.56,0.04 1.16,-0.08 -0.72,-0.12 -2.12,-0.12 1.32,0 2.32,-0.12 -2.6,-0.44 -2.6,-0.32 0,0.04 0.2,0.08 0.72,0 1.48,-0.24 -0.28,-0.04 -0.88,-0.08 -0.64,-0.08 -0.92,-0.16 0.8,0.08 1.44,-0.08 -0.4,-0.12 -1.48,-0.12 0.24,0 0.4,-0.12 -0.12,-0.12 -0.4,-0.12 0.64,0.04 1.32,-0.12 -0.28,-0.12 -0.84,-0.12 1.56,0 2.44,-0.08 -0.2,-0.04 -2.72,-0.12 0.2,-0.24 -0.2,-0.24 0.64,0.04 1.32,-0.12 -0.48,-0.12 -1.44,-0.32 0,0 2.04,0 0.8,-0.08 2.48,-0.24 -0.64,-0.16 -2.4,-0.12 0.32,0 0.68,-0.04 0.4,-0.04 0.44,-0.28 0.52,-0.04 1.8,-0.12 -0.28,-0.08 -2.68,-0.16 l 0.16,-0.08 q -0.04,-0.04 -0.2,-0.12 -0.16,-0.08 -0.16,-0.12 0.04,-0.12 0.64,-0.36 -0.2,-0.04 -0.52,-0.24 0.64,0.04 0.88,-0.08 -0.52,-0.24 -0.8,-0.24 0.56,-0.04 1.72,-0.08 1.16,-0.08 1.76,-0.12 -1.08,-0.08 -3.12,-0.24 0.32,-0.08 0.92,-0.24 -0.28,-0.12 -1.04,-0.12 0.16,0 0.84,-0.24 -0.2,-0.44 -0.72,-0.44 0.36,0 0.56,-0.12 0.04,-0.2 -0.24,-0.2 -0.12,-0.04 0.16,-0.16 -0.12,-0.08 -0.4,-0.08 1.04,0 3.16,-0.12 -1.96,-0.24 -2.8,-0.24 0.44,0.04 0.72,-0.12 -0.08,-0.08 -0.6,-0.12 l 8.76,0 -0.92,4.28 q -0.08,0.44 -0.08,0.8 0,1.4 1.92,1.4 1.4,0 3.32,-0.2 -0.24,-0.24 -0.92,-0.24 -1.08,0.04 -1.16,0.04 0.72,0 2.16,-0.12 -0.4,-0.12 -1.56,-0.12 0.72,0 2.2,-0.12 -0.16,-0.12 -0.76,-0.12 -0.72,0 -0.8,0 -0.44,-0.08 -0.64,-0.36 0.12,0 2.08,-0.32 -0.76,-0.16 -2.04,-0.44 0.64,0.04 1.28,-0.12 -0.08,-0.12 -0.4,-0.12 0.52,-0.04 1.64,-0.2 -0.72,-0.12 -2.08,-0.36 0.44,0 0.6,-0.16 -0.32,-0.08 -0.8,-0.28 0,-0.04 0.16,-0.24 0.16,-0.2 0.12,-0.28 0.28,0.08 0.72,-0.08 -0.08,-0.12 -0.56,-0.12 l 2.04,0 q 0.04,-0.04 0.28,-0.2 -0.4,-0.04 -1.24,-0.12 -0.84,-0.08 -1.28,-0.12 1.24,-0.08 3.76,-0.24 -1.04,-0.16 -2.52,-0.12 0.44,0.04 0.72,-0.12 -0.2,-0.2 -1.68,-0.2 0.52,0.04 1.2,-0.12 -0.08,-0.16 -0.56,-0.12 0.44,0 0.72,-0.12 -0.84,-0.16 -1.92,-0.36 0.92,0.04 2.64,-0.2 -0.84,-0.12 -2.72,-0.12 0.8,0.04 1.6,-0.12 -0.52,-0.12 -1.8,-0.12 0.6,0.04 1.32,-0.12 -0.04,-0.2 -0.24,-0.24 -0.12,-0.04 -0.36,0 -0.36,0.04 -0.44,0.04 0.24,0 0.36,-0.12 -0.52,-0.16 -1.12,-0.12 0.2,0.04 0.6,-0.12 -0.52,-0.2 -0.8,-0.2 0.52,0 0.88,-0.12 -0.76,-0.08 -2.36,-0.36 0.8,0.04 1.6,-0.12 -0.56,-0.12 -1.68,-0.12 0.92,0 2.72,-0.08 l -3.2,-0.36 q 0.12,0.04 0.6,-0.12 -0.08,-0.12 -0.56,-0.12 0.28,0 1.48,-0.24 -2.28,-0.12 -5.72,-0.4 0.16,0.04 1.56,0.04 1.48,0 1.68,-0.08 -0.16,-0.16 -1.72,-0.28 -1.32,-0.12 -1.76,-0.12 3.72,0 3.88,-0.04 -2.24,-0.16 -5.16,-0.44 l 0.16,-0.12 q -0.24,-0.04 -0.64,-0.24 0.52,-0.04 2.92,-0.12 2.4,-0.08 2.92,-0.12 -2.44,-0.28 -5.88,-0.2 0.16,0 0.28,-0.12 -0.24,-0.12 -0.76,-0.08 -0.52,0 -0.96,-0.08 0.12,-0.04 1.08,-0.04 -0.28,-0.12 -0.84,-0.12 0.44,0 0.72,-0.16 l 0,-0.08 q -0.08,-0.12 -0.44,-0.12 7.04,0 7.88,-0.04 -0.16,-0.16 -9.04,-0.16 0.28,-0.2 1.08,-0.48 -0.48,-0.16 -1.24,-0.12 0.28,0 0.44,-0.12 -0.28,-0.12 -0.84,-0.12 2.32,0 3.48,-0.08 l -3.8,-0.36 8.4,-0.04 q -0.12,-0.12 -6.28,-0.12 -0.24,-0.08 -0.72,-0.16 0.96,-0.08 0.96,-0.16 0,-0.12 -0.12,-0.28 0.4,-0.04 1.12,-0.08 0.72,-0.04 1.08,-0.12 -0.84,-0.2 -1.68,-0.2 0.48,0 1.04,-0.12 -0.36,-0.12 -1.4,-0.12 0.44,-0.04 1.2,-0.24 -0.84,-0.24 -1.32,-0.24 0.64,0 0.96,-0.16 -0.24,-0.16 -0.96,-0.16 0.44,0 0.72,-0.12 -0.32,-0.08 -0.92,-0.24 1.2,-0.04 3.76,-0.2 -1.56,-0.16 -3.72,-0.12 0.2,0.04 0.6,-0.12 -0.28,-0.08 -0.8,-0.24 l 5.04,-0.12 q -0.2,-0.04 -2.4,-0.08 -2.2,-0.08 -2.4,-0.16 1.44,0.04 2.44,-0.08 -0.48,-0.2 -1.28,-0.12 0.32,0 0.48,-0.12 -0.48,-0.12 -1.48,-0.12 1.76,0 2.8,-0.12 -0.88,-0.16 -2.76,-0.44 0.08,-0.04 0.16,-0.2 0.12,-0.2 0.2,-0.28 -0.08,-0.08 -0.4,-0.08 0.6,-0.08 1.76,-0.24 -0.28,-0.16 -1.52,-0.08 l 0.16,-0.64 q 1.16,0.16 2.08,0.04 -0.6,-0.08 -1.92,-0.24 0.32,0 -0.72,0.08 -0.32,0 -0.6,0 -0.12,0 -0.12,-0.04 0,-0.04 0.64,-0.2 0.64,-0.16 0.64,-0.24 0,-0.04 -0.04,-0.08 0.6,0 0.32,-0.24 0,0 -0.72,0.12 -0.28,-0.12 -0.84,-0.12 0.32,0 0.48,-0.08 -0.12,-0.04 -0.12,-0.04 0,-0.08 0.64,-0.2 0.64,-0.12 0.64,-0.2 0,0 -0.08,-0.04 0.28,0 -0.16,0.04 -0.4,0 -0.72,0 -0.4,0 -0.12,-0.04 -0.8,-0.24 -1.4,-0.24 0.48,0.04 0.76,-0.08 -0.12,-0.08 -0.4,-0.12 -0.28,-0.08 -0.4,-0.16 0.76,0 1,-0.08 -0.08,-0.12 -0.48,-0.12 0.24,0 0.4,-0.12 -0.28,-0.12 -0.84,-0.12 0.6,-0.04 1.8,-0.08 1.24,-0.08 1.84,-0.12 -1.08,-0.12 -3.2,-0.48 0.68,0.04 1.32,-0.12 -0.32,-0.12 -1.84,-0.16 0.12,0 1,0.08 0.32,-0.16 0.8,-0.48 2.28,-0.12 5.8,-0.32 -0.6,-0.08 -3,0 -2.96,0.12 -3.04,0.12 0.6,-0.12 1.8,-0.36 -0.52,-0.08 -1.4,-0.24 2.4,-0.16 5.8,-0.44 -0.16,-0.04 -4.84,0.12 0.44,-0.52 4.44,-0.72 0.12,-0.08 -0.12,-0.32 0.48,-0.12 4.28,-0.56 -0.52,-0.16 -1.56,-0.12 0.48,0.04 0.88,-0.12 -0.08,-0.12 -0.52,-0.12 1.48,0 2.44,-0.12 -0.2,-0.08 -0.68,-0.12 l 5.48,0 q 0.16,0 1.12,0.24 1.12,0.32 1.48,0.4 3.88,0.72 3.88,4.76 0,0.76 -0.16,1.48 l -0.6,2.8 -8.8,0 q 0.04,-0.28 -0.12,-0.28 1.12,0.04 2.16,-0.12 -0.56,-0.16 -1.84,-0.12 0.48,0.04 1.2,-0.12 0.04,-0.32 -0.6,-0.4 -0.84,-0.12 -1,-0.2 0.52,-0.12 1.64,-0.32 -0.44,-0.08 -1.56,-0.08 0.28,-0.2 0.8,-0.36 -0.12,-0.12 -0.48,-0.12 0.92,0 1.4,-0.12 -0.28,-0.12 -0.84,-0.12 1.44,0 2.16,-0.08 -0.8,-0.12 -2.56,-0.12 0.16,0.04 0.6,-0.12 -0.24,-0.12 -0.84,-0.12 0.44,0 1.32,-0.12 -0.72,-0.2 -1.08,-0.36 1.4,-0.04 4.2,-0.24 -0.08,-0.04 -4.12,-0.04 0.44,-0.32 0.72,-0.32 l 5.96,-0.16 -6.56,0 q 0.48,-0.08 1.32,-0.24 -1.4,-0.4 -2.72,-0.4 -1.32,0 -1.88,0.84 -0.32,0.44 -0.56,1.6 -0.16,0.84 -0.16,1.24 0,1.36 2.68,2.88 2.08,1.12 4.12,2.24 2.36,1.44 3.28,3.24 0.52,1.04 0.52,2.88 0,1.56 -0.36,3.24 z" />
      <path
         id="path4197"
         style="font-style:normal;font-variant:normal;font-weight:800;font-stretch:normal;font-family:storm;-inkscape-font-specification:'storm Ultra-Bold'"
         d="m 436.95852,395.21117 -6.04,0 -5.4,25.44 -10.48,0 q 0.04,-0.04 0.8,-0.32 -0.08,-0.28 -0.6,-0.72 0.68,-0.04 2,-0.2 -0.28,-0.08 -0.8,-0.2 -0.48,-0.12 -0.76,-0.2 0.44,0 0.6,-0.08 -0.08,-0.16 -0.56,-0.12 -0.04,0 0.96,-0.4 -0.16,-0.16 -0.08,-0.2 -0.32,-0.16 -0.88,-0.12 1.16,0 1.96,-0.12 -0.28,-0.16 -0.88,-0.12 0.92,0 1.4,-0.12 -1.64,-0.24 -2.48,-0.36 l 1.88,-0.36 q -0.28,-0.08 -0.88,-0.12 -0.6,-0.04 -0.88,-0.12 0.08,-0.04 1.64,-0.4 -0.04,-0.04 -0.08,-0.08 0,-0.04 0.2,-0.12 -0.36,-0.04 -0.96,-0.24 0.28,-0.04 0.92,-0.24 -0.28,-0.16 -0.88,-0.12 0.16,0 0.36,-0.12 0.04,-0.2 -0.56,-0.2 -0.6,-0.16 -1.04,-0.4 -0.12,-0.04 -0.24,-0.2 -0.12,-0.16 -0.28,-0.16 0.48,0 0.76,-0.12 -0.48,-0.24 -0.84,-0.24 0.24,-0.08 0.68,-0.28 -0.2,-0.12 -0.52,-0.36 3.44,0 3.64,-0.08 -1.4,-0.12 -3.56,-0.36 0.4,-0.08 1.24,-0.24 -0.28,-0.16 -0.88,-0.12 3.48,0 3.36,0 -0.92,-0.24 -3.08,-0.24 0.4,0 1.04,-0.24 -0.56,-0.16 -1.16,-0.12 0.12,0 0.32,-0.12 -0.12,-0.12 -0.44,-0.12 0.44,-0.12 2.04,-0.16 1.76,-0.04 2.12,-0.08 -0.88,-0.12 -2.64,-0.36 1.64,0.08 3.04,-0.08 -0.96,-0.12 -2.92,-0.44 0.36,-0.08 0.8,-0.4 0.64,-0.08 2.2,-0.24 -0.68,-0.12 -2.36,-0.12 0.36,-0.24 0.04,-0.24 0.56,0.04 1.2,-0.12 -0.2,-0.08 -0.72,-0.12 -0.48,-0.08 -0.72,-0.12 0.48,0 0.64,-0.12 -0.12,-0.12 -0.52,-0.12 0.24,0 0.6,-0.24 -0.12,-0.12 -0.28,-0.12 0.16,0.04 0.6,-0.12 -0.2,-0.04 -0.44,-0.28 -0.24,-0.28 -0.44,-0.32 1.2,0.04 1.96,-0.12 -0.52,-0.16 -1.32,-0.12 0.28,0 0.48,-0.12 -0.2,-0.24 -1,-0.24 0.68,-0.04 2.04,-0.08 1.36,-0.08 2.04,-0.16 -2,-0.24 -3.56,-0.24 0.2,0.04 0.64,-0.12 -0.36,-0.12 -0.76,-0.52 0.24,0 0.76,-0.2 -0.12,-0.12 -0.36,-0.12 0.24,0 0.4,-0.12 -0.12,-0.12 -0.32,-0.12 1.24,0 1.88,-0.12 -0.56,-0.12 -1.64,-0.12 0.56,0.04 1.24,-0.12 -0.08,-0.12 -0.88,-0.12 -0.48,-0.04 -0.68,-0.24 0.16,0 0.32,-0.04 -0.12,-0.08 -0.2,-0.16 -0.12,-0.12 0.16,-0.28 -0.68,-0.08 -2.04,-0.28 4.76,0 5.68,-0.04 -2.16,-0.08 -5.32,-0.32 l 0.2,-0.12 q -0.12,-0.08 -0.28,-0.08 3.88,0.08 5.64,-0.08 -1.68,-0.16 -5.76,-0.16 3.12,0.08 4.32,-0.08 -0.64,-0.12 -4.24,-0.12 -0.92,-0.04 -0.92,-0.12 0.12,-0.08 0.8,-0.16 0.2,-0.12 1.56,-0.36 -0.48,-0.04 -1.08,-0.4 0.8,0.04 1.36,-0.08 -0.52,-0.16 -1.2,-0.12 4.08,0 4.8,-0.08 -1.36,-0.16 -4.96,-0.16 0.04,0 1.04,-0.36 -0.08,-0.12 -0.68,-0.08 l 1.88,-0.52 q 0.56,0 0.68,-0.48 1.44,0.04 2.08,-0.08 -0.72,-0.08 -2.8,-0.08 0.24,-0.08 0.8,-0.28 -0.24,-0.08 -0.88,-0.08 0.24,-0.16 0.68,-0.4 -0.04,-0.04 -0.28,-0.12 -0.2,-0.08 -0.28,-0.12 0.48,0 0.64,-0.12 -0.12,-0.12 -0.72,-0.12 0.36,-0.04 1.2,-0.12 0.84,-0.08 1.24,-0.12 -0.32,-0.2 -2.04,-0.2 0.08,-0.6 0.32,-0.76 0.12,-0.12 0,-0.12 0.48,0.04 1.08,-0.12 -0.4,-0.08 -1.48,-0.08 1.16,-0.44 2.68,-0.64 -0.04,0 -1.64,-0.12 -0.48,-0.04 -0.68,-0.24 1.6,-0.12 4.84,-0.32 -2.84,-0.24 -4.72,-0.24 0.68,0.04 1.36,-0.12 -0.48,-0.16 -1.32,-0.12 l 0.52,-0.36 q -3.72,-0.2 -8.32,-0.44 -0.4,-0.28 -0.4,-0.44 0.68,-0.04 1.96,-0.2 -0.6,-0.16 -1.88,-0.08 0.56,-0.28 1.72,-0.52 -0.56,-0.12 -1.6,-0.08 0.52,0 0.92,-0.12 -0.48,-0.24 -0.68,-0.4 0.64,0.04 0.92,-0.08 -0.12,-0.08 -0.48,-0.12 -0.36,-0.08 -0.52,-0.12 0.08,-0.08 0.32,-0.12 0.24,-0.08 0.32,-0.12 0.88,0.04 1.76,0.08 0.12,-0.08 0.16,-0.2 0,-0.16 -0.08,-0.16 0.44,0.04 0.76,-0.12 0,0 -0.6,-0.16 0.04,0 0.2,-0.08 -0.08,-0.08 -0.44,-0.08 0.48,-0.08 1.28,-0.28 -0.12,-0.12 -0.6,-0.12 0.32,0 0.64,-0.12 -0.16,-0.04 -0.52,-0.12 -0.32,-0.08 -0.48,-0.12 2.04,0 3,-0.12 -0.96,-0.04 -2.92,-0.24 0.96,0.04 1.8,-0.12 -0.52,-0.04 -1.44,-0.24 0.64,0.04 0.92,-0.12 -0.2,-0.08 -1,-0.08 0.12,-0.2 0.56,-0.52 -0.04,-0.04 -0.28,-0.16 -0.2,-0.12 -0.24,-0.2 0.16,-0.04 0.44,-0.08 0.32,-0.08 0.48,-0.16 -0.08,-0.12 -0.56,-0.12 l 22.2,0 -1.36,6.4 z" />
      <path
         id="path4199"
         style="font-style:normal;font-variant:normal;font-weight:800;font-stretch:normal;font-family:storm;-inkscape-font-specification:'storm Ultra-Bold'"
         d="m 459.62414,413.45117 q -0.28,0.64 -0.72,1.84 -0.76,2.04 -3.72,3.8 -2.76,1.68 -5.24,1.88 -0.08,0 -0.48,0.08 -0.36,0.12 -0.56,0.12 l -2.8,0 0.04,-0.16 q -0.96,-0.04 -2.72,-0.28 -0.24,-0.04 -0.84,-0.04 l 1.96,-0.08 q 0.08,-0.04 0.32,-0.16 -1.64,-0.12 -5.04,-0.64 l 1.16,0 q 0.08,-0.04 0.32,-0.16 -0.56,-0.16 -1.68,-0.12 0.36,-0.08 1.08,-0.12 0.72,-0.08 1.12,-0.12 -0.44,-0.08 -1.36,-0.12 -0.92,-0.08 -1.32,-0.12 0.68,0.04 1.32,-0.12 -0.24,-0.12 -0.84,-0.08 -0.56,0 -0.64,-0.28 0.32,0.04 0.72,-0.08 -0.28,-0.12 -0.76,-0.12 0.76,0 1.24,-0.16 -0.4,-0.2 -1.24,-0.2 0.44,0.04 0.72,-0.08 -0.4,-0.12 -1.4,-0.12 0.6,-0.08 1.72,-0.12 1.16,-0.08 1.76,-0.12 -0.72,-0.08 -4.48,-0.36 1.04,-0.12 3.08,-0.44 -0.32,-0.28 -1.32,-0.24 -1.52,0 -1.64,0 0.72,-0.04 2.16,-0.12 1.48,-0.08 2.2,-0.12 -0.2,0 -3.52,-0.04 -0.16,0 -0.4,-0.12 -0.24,-0.16 -0.4,-0.16 2.2,0 3.4,-0.12 -0.8,-0.12 -2.56,-0.12 0.6,0.04 1.16,-0.12 -0.8,-0.08 -2.52,-0.08 0.64,-0.08 2.04,-0.24 -0.2,-0.08 -2.2,-0.36 1.08,0.04 2,-0.12 l 0,-0.12 q -0.72,-0.12 -1.52,-0.12 0.32,0 0.92,-0.2 -0.44,-0.12 -1.2,-0.36 l 1,0 q 0.08,-0.04 0.32,-0.2 -0.4,-0.16 -1.32,-0.44 l 0.2,-0.88 q 0.88,0.04 1.56,-0.08 -0.48,-0.04 -1.52,-0.2 0.16,-0.12 3.88,-0.24 -1.2,-0.08 -3.64,-0.24 0.2,-0.04 0.88,-0.24 -0.24,-0.12 -0.8,-0.12 1.12,0 1.72,-0.12 -0.96,-0.4 -4.48,-0.4 l 2.84,-0.4 q 1.92,0.16 3.36,0.04 -1.2,-0.08 -3.52,-0.24 0.72,0.04 1.32,-0.12 -0.48,-0.16 -1.24,-0.08 0.48,-0.08 1.32,-0.28 -0.28,-0.12 -0.68,-0.08 0.12,0 0.2,-0.32 -0.08,-0.16 -0.68,-0.12 0.36,-0.24 0.2,-0.4 0.4,-0.04 1.2,-0.2 -0.48,-0.16 -1.24,-0.12 0.2,-0.04 0.72,-0.08 0.52,-0.08 0.72,-0.16 -0.48,-0.16 -1.4,-0.08 0.52,-0.08 1.6,-0.12 1.08,-0.08 1.6,-0.12 -1.24,-0.16 -2.96,-0.12 0.92,-0.04 2.76,-0.24 -1.16,-0.16 -2.68,-0.12 0.56,0 1.76,-0.2 -0.28,-0.08 -2.4,-0.12 -2.12,-0.08 -2.4,-0.12 3.88,0.08 5,-0.12 -0.52,-0.12 -1.96,-0.12 0.36,-0.04 1.16,-0.08 0.8,-0.08 1.16,-0.12 -0.36,-0.08 -1.12,-0.12 -0.76,-0.08 -1.12,-0.12 0.24,-0.08 2.36,-0.36 -0.72,-0.12 -2.12,-0.12 0.28,0 0.44,-0.08 -0.04,-0.08 -0.44,-0.16 l 0.4,0 q 0.24,-0.2 0,-0.2 1,0.04 1.72,-0.12 -0.6,-0.08 -2.12,-0.08 0.4,-0.08 1.2,-0.28 -0.12,-0.08 -1.04,-0.08 -0.12,0 0.84,-0.36 -0.08,-0.12 -0.52,-0.12 1.44,0 2.16,-0.12 -0.72,-0.08 -2.2,-0.08 -0.24,0 -2.48,-0.16 -2.52,-0.12 -2.32,-0.2 1.28,-0.04 2.56,-0.04 2.8,0 2.4,0.04 1.4,0 2.28,-0.12 -0.68,-0.12 -2.32,-0.12 0.2,0 0.4,-0.12 -0.12,-0.08 -0.44,-0.08 0.16,0 0.6,-0.16 l 0,-0.08 q -0.16,-0.08 -0.48,-0.28 l 7,0 q -0.32,-0.44 -1.24,-0.44 -0.36,0 -1.8,0.16 -1.24,0.16 -2,0.08 -1.04,-0.12 -1.88,-0.08 1.12,0 1.88,-0.12 -0.44,-0.16 -1.4,-0.12 -0.12,-0.04 0.16,-0.12 -0.08,-0.16 -0.56,-0.12 1.6,0 2.44,-0.12 -0.88,-0.04 -2.52,-0.2 0.8,-0.08 2.48,-0.24 -0.72,-0.16 -2.12,-0.12 0.72,0 2.16,-0.12 -0.68,-0.12 -2.08,-0.12 0.92,0 2.72,-0.12 -0.56,-0.04 -1.8,-0.2 0.16,0.04 0.6,-0.12 -0.44,-0.12 -6.44,-0.12 3.28,0 7.48,-0.12 -0.52,-0.08 -2.28,-0.08 0.12,-0.08 0.24,-0.32 0.76,0.08 1.28,-0.04 -0.28,-0.08 -1.52,-0.08 0.04,-0.28 -0.2,-0.28 0.4,0 1,-0.24 -0.24,-0.2 -0.48,-0.2 0.64,0 1.12,-0.12 -0.52,-0.08 -1.24,-0.24 0.44,0 0.6,-0.12 -0.08,-0.08 -0.68,-0.08 0.08,-0.48 0,-0.48 0.64,0 1.08,-0.12 -2.64,-0.4 -5.4,-0.88 1.4,0.16 2.84,0.32 2.64,0.28 2.92,0.24 -0.36,-0.12 -1.4,-0.12 0.8,-0.2 1.64,-0.36 -0.12,-0.12 -1.12,-0.12 0.48,0 1.32,-0.12 -0.16,-0.24 -0.64,-0.24 l 0.16,-0.08 q -0.28,-0.12 -0.76,-0.12 0.36,0 0.52,-0.12 -0.12,-0.12 -0.56,-0.12 0.96,-0.04 2.92,-0.2 -1.08,-0.2 -2.56,-0.12 1.68,0.04 2.88,-0.12 -0.4,-0.08 -3.2,-0.16 -2.76,-0.12 -3.16,-0.16 2.08,0 4.44,-0.16 -0.24,-0.12 -0.8,-0.08 l 2.64,-0.36 q -1.08,-0.16 -2.56,-0.12 0.08,0 1.04,-0.24 -0.08,-0.12 -0.52,-0.12 2.28,0 3.6,-0.08 -0.84,-0.12 -2.72,-0.12 0.8,0.04 1.6,-0.12 -0.68,-0.12 -2.4,-0.12 l 3.64,-0.32 q -0.44,-0.08 -3.88,-0.2 -3.44,-0.12 -3.88,-0.16 0.16,0.04 2.64,0.04 2.56,0.04 2.76,-0.04 -0.2,-0.24 -0.44,-0.24 0.12,0 0.36,-0.32 0.56,-0.12 2.56,-0.36 -0.48,-0.16 -1.12,-0.12 0.56,0.04 1.16,-0.12 -0.48,-0.2 -0.8,-0.2 0.56,0.04 1.16,-0.12 -0.2,-0.08 -0.68,-0.12 -0.48,-0.04 -0.68,-0.08 0.08,-0.12 0.24,-0.32 0.6,0.04 0.84,-0.08 -0.12,-0.08 -0.4,-0.08 1.28,-0.12 4.08,-0.48 -0.6,-0.08 -4.4,-0.12 -3.56,-0.08 -4.48,-0.04 -0.4,0.08 -0.56,0.16 l 0,0 q 0.32,0 0.6,0.04 1.64,-0.08 3.28,-0.2 2.68,-0.12 5.16,-0.12 1.48,0 2.88,0.04 0.24,-0.04 -4.52,-0.2 0.8,-0.08 2.32,-0.24 -0.2,-0.08 -0.64,-0.24 -0.2,0 1.04,-0.08 1.48,-0.08 4.56,-0.12 -0.48,-0.08 -2.6,-0.16 l 4.28,0 q 0.08,0 1.64,0.4 2.6,0.68 3.96,2.4 1.28,1.52 1.28,3.56 0,0.64 -0.16,1.32 l -3.44,16.24 z m -2.04,-9.24 -3.56,0 q 0.12,-0.4 0.44,-0.92 l 1.76,0 q -0.12,-0.04 -1.08,-0.04 -0.6,0.04 -0.84,-0.24 0.04,-0.08 0.28,-0.32 l 0.84,0 q -0.4,0 -1.04,-0.2 0.32,-0.16 0.68,-0.16 -0.52,0 -0.6,-0.12 0.2,-0.08 -0.08,-0.32 0.48,-0.12 1.04,-0.12 -0.52,0 -0.84,-0.16 0,-0.04 0.16,-0.16 0.16,-0.12 0.16,-0.2 -0.32,0 -0.36,-0.04 0.64,-0.16 1.16,-0.12 -0.12,0 -0.08,-0.16 0.08,-0.12 0.28,-0.2 -0.76,0 -1.12,-0.12 0.44,-0.12 1.04,-0.08 -1.32,-0.08 -2.88,-0.28 0.2,-0.08 2.72,-0.08 -0.2,0 -0.72,-0.24 0.44,-0.16 0.72,-0.08 -0.2,-0.08 -0.2,-0.16 0,-0.12 0.08,-0.16 -0.56,0.04 -0.64,-0.08 0.08,-0.12 0.32,-0.4 l 0.76,0 q -0.44,-0.04 -0.68,-0.16 0.56,-0.12 1.04,-0.12 -0.64,0 -1.16,-0.12 l 0.08,-0.28 q 0.72,-0.2 1.32,-0.16 -0.56,-0.04 -1.52,-0.24 0.52,-0.08 1.44,-0.08 -0.72,0.04 -1.24,-0.16 0.12,-0.08 0.44,-0.08 -0.2,-0.04 -0.36,-0.32 -0.12,-0.32 -0.36,-0.36 0.64,-0.24 0.92,-0.24 l -1.4,-0.04 q -0.8,0 -1.44,0.16 -0.16,0.04 -0.32,0.2 -0.72,1.2 -0.8,1.52 l -3.72,17.56 q -0.48,2.16 1.04,2.16 0.04,0 2.08,-0.16 2.04,-0.16 2.96,-0.16 -0.88,0 -2.24,-0.08 -0.12,-0.08 -0.04,-0.12 -0.8,-0.12 -1.24,-0.24 0.24,-0.2 0.32,-0.16 0.2,-0.4 0.84,-0.36 1.08,0.04 1.08,0.04 -0.32,0 -1.92,-0.32 1.04,-0.16 2.44,-0.12 -1.4,0 -2.12,-0.12 1.36,-0.32 1.44,-0.32 -0.88,0 -1.08,-0.12 1.6,-0.24 1.92,-0.24 -1.04,0 -2.08,-0.36 0.16,-0.08 0.52,-0.08 -0.36,0 -0.44,-0.12 0.36,-0.08 1.04,-0.24 -0.28,-0.08 -0.52,-0.2 -0.16,0 -0.4,-0.12 l 0,-0.12 q 0.48,-0.16 1.04,-0.12 -0.44,-0.08 -1.12,-0.24 0.28,-0.36 0.52,-0.36 -0.24,0 0,-0.16 0.28,0 0.96,-0.08 0.68,-0.08 0.88,-0.08 -1,0 -1.6,-0.12 0.24,-0.12 0.72,-0.12 -0.68,0 -0.96,-0.12 0.2,-0.04 -0.08,-0.32 0.12,-0.04 -0.08,-0.24 0.36,-0.24 0.6,-0.24 -0.28,0 -0.52,-0.2 0.36,-0.12 0.84,-0.12 -0.36,0 -0.48,-0.12 0.24,-0.12 0.88,-0.12 -0.4,-0.08 -1.12,-0.24 l 0.08,-0.32 q 0.2,-0.12 0.52,-0.12 -0.2,0 -0.32,-0.12 0.44,-0.04 1.2,-0.24 -0.72,0.04 -1,-0.08 0.72,-0.16 1.76,-0.12 0.04,0 -1.08,0 -0.68,0.04 -0.84,-0.36 0.24,-0.12 0.72,-0.12 -0.28,0 -0.4,-0.08 0.6,-0.16 1.04,-0.12 -0.44,0 -0.72,-0.12 0.64,-0.24 0.64,-0.24 -0.76,0 -1,-0.12 l 0.08,-0.4 1.76,0 q -0.76,-0.08 -1.8,-0.28 1.32,-0.36 1.36,-0.36 -0.64,0.04 -1.12,-0.08 0.44,-0.12 1,-0.12 -0.56,0 -0.84,-0.12 0.88,-0.24 1.2,-0.24 -1.8,-0.12 -4,-0.36 l 2.88,-0.4 2.16,0 q -0.6,-0.04 -1.68,-0.16 0.16,-0.12 0.28,-0.12 -0.6,0 -0.68,-0.08 0.36,-0.08 1.32,-0.12 -0.76,0.04 -1.28,-0.12 0.16,-0.04 0.32,-0.2 l 1.4,0 q -1.8,-0.08 -1.8,-0.08 l 0.12,-0.6 q 0.4,-0.28 0.56,-0.28 -0.36,0 -0.32,-0.2 l 0.32,-0.2 1.68,0 q -0.68,-0.04 -2.04,-0.16 0.4,-0.16 0.6,-0.12 -0.32,0 -0.4,-0.08 0.68,-0.24 1.8,-0.24 1.48,-0.04 1.8,-0.08 z" />
      <path
         id="path4201"
         style="font-style:normal;font-variant:normal;font-weight:800;font-stretch:normal;font-family:storm;-inkscape-font-specification:'storm Ultra-Bold'"
         d="m 490.63977,397.45117 q -0.24,0.96 -0.44,1.92 -0.4,1.32 -1.36,2.64 -1.08,1.44 -4.84,1.92 -0.04,0.16 0.16,0.2 0.2,0.04 0.2,0.04 3.96,0.88 3.96,3.76 0,0.36 -0.08,0.72 l -2.56,12 -8.16,0 q -0.08,-0.28 -1.04,-0.28 0.16,0.04 0.64,-0.16 l 0,-0.08 q -0.08,-0.12 -0.6,-0.12 0.52,0 0.84,-0.12 -0.16,-0.08 -0.52,-0.12 -0.36,-0.08 -0.48,-0.12 0.44,0 0.64,-0.16 0.04,-0.16 -0.56,-0.16 l 0.16,-0.68 q 0.8,0.04 1.32,-0.08 -0.52,-0.16 -1.16,-0.12 1.04,0 1.68,-0.12 -0.56,-0.12 -1.8,-0.12 0.4,-0.04 1.24,-0.08 0.84,-0.08 1.2,-0.16 -0.28,-0.08 -1.96,-0.28 l 0.04,-0.24 q -0.96,-0.12 -0.72,-0.2 -0.36,-0.36 -0.36,-0.28 0,0 2.32,0.08 1.76,0.04 2.4,-0.04 -0.52,-0.04 -2.44,-0.16 -1.88,-0.16 -2.4,-0.2 2.2,0 2.24,-0.04 -0.08,-0.08 -1.12,-0.2 -0.8,-0.08 -1.6,-0.2 0,0 0,-0.04 0.04,0 2.76,-0.04 0.6,-0.04 0.8,-0.08 -1.32,-0.32 -3.4,-0.32 1.08,-0.04 2.48,-0.16 -0.08,-0.08 -1,-0.16 -0.88,-0.08 -1.2,-0.08 3.04,0 3,0.04 -0.52,-0.08 -1.6,-0.28 0.44,0 1.4,-0.24 -0.36,-0.04 -1.16,-0.24 0.32,0.08 0.8,-0.12 -0.12,-0.12 -0.6,-0.08 0.52,0 1.08,-0.16 0,-0.2 -0.28,-0.24 -0.16,-0.04 -0.52,0 -0.48,0.04 -0.48,0.04 0.24,-0.16 1.12,-0.36 -0.28,-0.16 -0.88,-0.12 0.56,0 0.92,-0.16 -0.16,-0.2 -0.64,-0.2 1,0 1.44,-0.12 -0.48,-0.08 -1.56,-0.24 0.28,0 0.48,-0.16 0.04,-0.08 -0.52,-0.32 0.2,-0.24 1,-0.24 l 0.52,0 q 0.68,0 1.08,-0.12 -0.52,-0.12 -2.08,-0.12 0.2,-0.12 0.68,-0.36 -0.28,-0.16 -0.72,-0.12 0.88,0 1.52,-0.12 -0.68,-0.2 -1.28,-0.2 -0.12,-0.04 0.16,-0.16 -0.12,-0.12 -0.56,-0.12 0.44,0 1.36,-0.12 -0.28,-0.12 -0.72,-0.12 0.48,0.04 1.08,-0.12 -0.24,-0.04 -0.76,-0.12 -0.48,-0.08 -0.68,-0.12 0.4,0 1.24,-0.24 -0.52,-0.16 -1.16,-0.12 0.44,0.04 1.04,-0.12 -0.08,-0.08 -0.72,-0.08 0.48,-0.32 0.28,-0.52 0.32,0 0.84,-0.12 0.56,-0.16 0.88,-0.24 -0.48,-0.12 -1.76,-0.08 0,-0.08 0.2,-0.28 -0.04,-0.08 -0.68,-0.36 1.08,0 1.52,-0.08 -0.52,-0.16 -1.44,-0.4 0.48,0 0.64,-0.08 -0.32,-0.08 -0.6,-0.16 0.04,-0.04 0.2,-0.12 -0.04,-0.04 -0.24,-0.08 -0.16,-0.08 -0.16,-0.16 0.32,-0.04 0.96,-0.2 -0.32,-0.16 -0.88,-0.12 1.76,0 2.72,-0.12 -0.56,-0.16 -1.64,-0.12 2.76,0 4.2,-0.16 l -8,0 -3.04,14.4 -7.68,0 0.04,-0.16 q -0.56,-0.16 -2.64,-0.28 0.44,-0.12 3.24,-0.44 -0.72,-0.16 -2.2,-0.12 0.16,0.04 0.6,-0.12 -0.12,-0.04 -1.4,-0.16 -1.24,-0.16 -1.4,-0.2 0.72,0 1.4,0 0.76,-0.12 2.6,-0.36 -1.24,-0.24 -2.32,-0.24 0.48,0.04 1.08,-0.12 -0.32,-0.16 -0.88,-0.12 0.16,0 0.32,-0.12 -0.12,-0.12 -0.52,-0.12 2,0 3.12,-0.12 -0.6,-0.16 -2.08,-0.12 0.44,-0.04 1.36,-0.08 0.92,-0.08 1.36,-0.16 -1.28,-0.16 -2.96,-0.12 0.16,0 0.52,-0.2 -0.32,-0.16 -0.72,-0.16 0.88,0 1.36,-0.12 -0.4,-0.12 -1.48,-0.12 0.48,0.08 1.12,-0.08 0.84,-0.24 1.08,-0.28 -0.28,-0.04 -1.04,-0.08 -0.76,-0.08 -1.16,-0.16 0.84,-0.04 2.6,-0.24 -0.96,-0.04 -2.64,-0.36 3.6,0.04 6.6,-0.08 -2.44,-0.08 -4.56,-0.16 -1.68,-0.08 -1.96,-0.08 0.6,-0.08 1.84,-0.24 -0.64,-0.08 -1.68,-0.4 1.32,0.08 2.4,-0.12 -0.4,-0.16 -1.48,-0.08 1.8,0 2.88,-0.12 -0.6,-0.08 -1.88,-0.12 -1.24,-0.08 -1.8,-0.12 0.76,0.04 1.64,-0.12 -0.44,-0.24 -0.76,-0.24 0.88,0 2.24,-0.32 -0.48,-0.32 -1.28,-0.32 -1.32,0.04 -1.36,0.04 0.96,0.04 1.8,-0.12 -0.48,-0.08 -1.56,-0.24 0.52,-0.08 1.68,-0.24 -0.36,-0.08 -0.84,-0.28 0.48,0 0.6,-0.08 -0.4,-0.04 -1.28,-0.24 0.64,0 1.84,-0.24 -0.36,-0.04 -1.08,-0.16 -0.72,-0.16 -1.08,-0.2 1.2,0.04 1.96,-0.12 -0.52,-0.16 -1.16,-0.12 1.36,0 2.12,-0.12 -0.44,-0.04 -1.32,-0.12 -0.88,-0.08 -1.32,-0.12 0.8,0.04 1.52,-0.12 -0.16,-0.12 -1.08,-0.12 0.8,0 2.36,-0.24 -1.88,-0.08 -4.44,-0.36 1.84,-0.2 4.76,-0.48 -0.48,-0.16 -2.76,-0.04 -2.04,0.08 -2.44,-0.28 1.84,-0.12 4.44,-0.4 -0.16,-0.12 -3.8,-0.12 3.4,0 5.4,-0.24 -1,-0.08 -5.68,-0.08 0.36,-0.28 -0.04,-0.28 2.4,0 3.32,-0.32 -0.32,-0.16 -3.2,-0.16 3.16,0 4.92,-0.24 -0.6,-0.2 -1.44,-0.2 -0.12,-0.04 0.16,-0.16 -0.12,-0.08 -0.56,-0.08 0.68,-0.08 2.12,-0.12 1.44,-0.08 2.12,-0.16 -0.04,-0.04 -3.64,-0.04 -0.2,0 -0.56,-0.16 -0.48,-0.2 -0.64,-0.24 0.52,0 1.68,-0.12 -0.28,-0.16 -0.88,-0.12 0.44,-0.08 1.36,-0.12 0.92,-0.08 1.36,-0.12 -1.4,-0.24 -2.48,-0.24 0.8,0.04 1.68,-0.12 -0.52,-0.16 -1.64,-0.12 0.2,0.04 0.64,-0.12 -0.4,-0.12 -1.32,-0.12 0.48,-0.08 1.24,-0.24 -0.08,-0.12 -0.72,-0.08 0.24,-0.08 0.8,-0.28 -0.36,-0.04 -1.12,-0.24 0.12,-0.04 2.6,-0.36 -1,-0.16 -2.68,-0.08 0.24,-0.08 0.8,-0.28 -0.08,-0.12 -0.32,-0.12 1.56,0 2.32,-0.12 -0.28,-0.04 -0.96,-0.12 -0.64,-0.08 -0.92,-0.12 0.48,0 0.6,-0.08 -0.56,-0.2 -1.16,-0.16 0.96,0 1.52,-0.12 -0.52,-0.24 -1.08,-0.24 0.24,0 0.4,-0.12 -0.28,-0.04 -0.84,-0.24 1.72,0 2.44,-0.12 -0.36,-0.04 -1.12,-0.08 -0.72,-0.08 -1.08,-0.16 1.52,0.04 2.56,-0.12 -0.72,-0.12 -2.28,-0.12 0.92,0 2.8,-0.24 -0.6,-0.16 -1.92,-0.12 2.24,0 3.48,-0.12 -2.36,-0.2 -3.68,-0.2 1.72,0.04 3.28,-0.16 -1,-0.08 -3.08,-0.08 0.56,0.04 1.2,-0.16 -0.48,-0.2 -1.6,-0.2 -0.64,-0.04 -1.32,-0.04 -1.56,-0.12 -1.28,-0.16 -0.56,-0.12 -1.76,-0.12 5,0.12 5.96,-0.04 -2.52,-0.12 -5.28,-0.36 0.2,0 0.8,-0.2 -0.4,-0.12 -1.48,-0.12 0.48,-0.08 1.28,-0.36 -0.16,-0.12 -1.16,-0.12 0.4,-0.12 3.36,-0.28 3.12,-0.12 3.72,-0.24 -0.4,-0.12 -1.52,-0.12 -0.96,0 -1.4,-0.28 2.52,0.04 3.92,-0.08 -0.52,-0.08 -1.64,-0.12 -1.08,-0.08 -1.6,-0.12 0.88,0 2.88,-0.24 -0.72,-0.12 -2.36,-0.12 0.48,0.04 0.76,-0.12 -2.84,-0.04 -6.24,-0.2 l 5.12,-0.08 q 0.04,-0.12 0.36,-0.32 -0.08,-0.16 -0.56,-0.12 1.36,0 2.12,-0.12 -0.68,-0.12 -2.36,-0.12 0.4,-0.12 1.4,-0.36 -0.52,-0.16 -1.32,-0.12 0.4,-0.04 1.16,-0.12 0.76,-0.08 1.12,-0.12 -0.36,-0.16 -1.44,-0.12 0.48,0.04 1.04,-0.12 -0.56,-0.12 -1.6,-0.12 0.52,0.04 0.92,-0.12 -0.28,-0.12 -1,-0.12 1.04,-0.16 2.6,-0.36 -0.44,-0.04 -1.24,-0.2 -0.76,-0.2 -1.2,-0.28 0.6,0.04 1.24,-0.12 -0.12,-0.12 -0.52,-0.12 0.24,0 0.4,-0.12 -0.12,-0.12 -0.44,-0.12 l 8.12,-0.16 -8.2,0 q 0.88,-0.04 2.72,-0.16 -3.56,-0.48 -3.56,-0.28 0.08,0.04 0.6,0.16 1.48,0.04 2.56,-0.12 -0.88,-0.12 -2.6,-0.12 0.28,0 1,-0.12 0.76,-0.12 1.08,-0.16 -0.52,-0.16 -1.16,-0.08 1.36,0 2.08,-0.12 -0.68,-0.12 -2.04,-0.12 0.48,0 1.08,-0.12 -0.44,-0.12 -1.56,-0.12 3.2,0 4.88,-0.12 -2.92,-0.24 -4.56,-0.24 0.44,0 0.76,-0.16 l -0.32,-0.6 q 1.04,0.2 2.08,0.04 -0.84,-0.08 -2.48,-0.24 0.96,0.04 1.8,-0.12 -0.56,-0.12 -1.76,-0.12 0.6,0.04 1.24,-0.12 -0.28,-0.08 -3.4,-0.12 -3.08,-0.04 -3.36,-0.08 0.4,0 3,-0.24 2.92,-0.24 3.04,-0.4 -0.12,-0.16 -0.6,-0.12 0.64,0 0.8,-0.24 1.04,-0.04 3.84,-0.12 2.44,-0.04 2.64,-0.04 8.16,0 10.48,0.64 3.84,1.08 3.84,5.08 0,1.32 -0.36,3.04 z m -6.56,6.48 q -1.4,-0.04 -4.12,-0.16 0.96,-0.28 1.68,-0.24 -0.72,0 -1,-0.24 1.64,-0.24 2.16,-0.24 -1.16,0.04 -2.08,-0.12 l 0.04,-0.12 q 0.2,-0.12 0.56,-0.12 -0.36,0 -0.52,-0.12 0.12,-0.12 -0.76,-0.36 -0.88,-0.28 -0.72,-0.32 -0.12,0 -0.36,0 -0.24,-0.04 -0.2,-0.2 0.8,-0.28 4.2,-0.2 -2.8,0 -4.24,-0.28 0.8,-0.2 3.6,-0.08 -0.36,0 0,-0.16 -1.44,-0.2 -3.12,-0.6 0.72,-0.16 3.84,0.04 -0.56,0 -0.96,-0.24 -0.24,0 -0.6,-0.12 0.08,-0.08 0.32,-0.32 l 0.56,0 q -0.48,-0.04 -0.64,-0.16 l 0.16,-0.68 q 0.2,-0.12 0.48,-0.12 -0.4,0 -0.72,-0.16 0.16,-0.04 0.32,-0.2 l 1.28,0 q -0.48,0 -1.36,-0.24 0.68,-0.16 1.4,-0.12 0,0 -0.92,0 -0.52,0.04 -0.84,-0.24 0.24,-0.08 0.4,-0.24 0.16,-0.2 0.32,-0.28 -0.16,0 -0.4,-0.04 -0.64,0.08 -0.68,-0.24 l -2.28,0 -1.48,6.92 6.68,0 z" />
      <path
         id="path4203"
         style="font-style:normal;font-variant:normal;font-weight:800;font-stretch:normal;font-family:storm;-inkscape-font-specification:'storm Ultra-Bold'"
         d="m 521.53227,420.65117 -8.8,0 q 0.48,0 1.4,-0.16 -0.24,-0.04 -0.68,-0.08 -0.4,-0.08 -0.6,-0.16 0.44,0 1.68,-0.24 -0.52,-0.16 -1.32,-0.08 0.48,0 0.76,-0.12 -0.28,-0.12 -1.16,-0.12 0.32,-0.08 1,-0.12 0.68,-0.08 1,-0.12 -0.92,-0.24 -1.76,-0.24 0.56,0.04 1.24,-0.12 -0.36,-0.08 -1,-0.24 0.36,-0.08 1.24,-0.24 -0.48,-0.16 -1.48,-0.12 0.56,-0.24 0.56,-0.72 0,-0.32 -0.28,-0.52 1,0.08 1.8,-0.08 -0.28,-0.08 -0.88,-0.12 -0.56,-0.08 -0.84,-0.12 0.6,-0.08 1.88,-0.12 1.28,-0.08 1.88,-0.12 0,0 -2.48,-0.12 -0.8,-0.04 -1.16,-0.24 0.88,-0.08 2.72,-0.24 -0.6,-0.04 -1.6,-0.12 -0.52,-0.04 -0.72,-0.28 0.68,-0.04 2.16,-0.2 -0.76,-0.08 -2.16,-0.36 0.6,0.04 1.2,-0.12 -0.08,-0.12 -0.56,-0.12 1.2,0 1.8,-0.12 -0.72,-0.12 -1.88,-0.28 0.28,-0.04 0.28,-0.08 0,-0.08 -0.84,-0.12 l 2.8,-0.36 q -0.68,-0.12 -2.4,-0.12 0.32,0 0.96,-0.24 -0.36,-0.08 -1.12,-0.36 2.08,0 2.88,-0.12 -1.68,-0.2 -2.64,-0.2 0.16,0 0.6,-0.16 -0.08,-0.12 -0.72,-0.08 0.56,-0.12 1.88,-0.4 -0.56,-0.12 -1.76,-0.08 0.68,0 1.96,-0.12 -1.72,-0.36 -1.72,-0.36 0.68,0.04 1.36,-0.12 -0.32,-0.04 -1.12,-0.24 -0.12,-0.08 -0.12,-0.12 0,-0.08 0.4,-0.12 0.44,-0.08 0.52,-0.12 -0.28,-0.16 -1,-0.12 0.28,-0.12 1.44,-0.48 -0.52,-0.16 -1.16,-0.12 0.92,0 1.52,-0.12 -0.32,-0.24 -1.16,-0.24 0.52,0.04 0.92,-0.12 -0.4,-0.12 -1.32,-0.12 0.56,-0.08 1.72,-0.24 -0.28,-0.16 -0.88,-0.12 0.76,0 1.2,-0.12 -0.44,-0.04 -1.08,-0.16 0.24,-0.12 0.24,-0.2 0,-0.16 -0.32,-0.24 -0.32,-0.08 -0.48,0 0.52,0 1.04,-0.12 -0.72,-0.2 -1.08,-0.36 2.2,0 3.12,-0.12 -0.84,-0.12 -2.8,-0.12 0.64,0.04 1.52,-0.12 -0.52,-0.12 -1.76,-0.12 0.52,-0.04 1.68,-0.24 -0.48,-0.04 -1.56,-0.24 0.76,0.04 1.64,-0.12 -0.32,0 -0.84,-0.04 -0.32,-0.04 -0.4,-0.24 -0.08,-0.2 -0.2,-0.6 0.8,0.04 2.4,-0.08 -1.68,-0.32 -1.88,-0.32 0.4,-0.16 1.44,-0.4 -0.64,-0.2 -1.32,-0.2 0.2,0.04 0.64,-0.16 -0.28,-0.08 -0.8,-0.36 l 5.52,-0.12 q -0.04,-0.08 -5.48,-0.08 0.2,-0.32 0.84,-0.4 0.68,-0.12 1.36,-0.2 -0.56,-0.08 -1.8,-0.24 0.8,-0.08 2.52,-0.24 -0.76,-0.16 -2.36,-0.12 0.96,-0.08 3.04,-0.24 -0.52,-0.08 -1.64,-0.12 -1.12,-0.08 -1.6,-0.12 1.28,0.04 2.4,-0.12 -0.6,-0.04 -1.8,-0.16 -0.44,0 -0.64,-0.24 0.68,-0.04 1.96,-0.24 -0.2,-0.24 -0.84,-0.2 -0.6,0.04 -0.64,-0.36 0,-0.12 -0.2,-0.48 0.04,-0.04 2,-0.36 -0.32,-0.08 -1.72,-0.24 0.04,-0.24 -0.04,-1 l -8.2,21.36 -6.04,-0.24 q 0.68,-0.08 2.12,-0.28 -1.24,-0.24 -2.04,-0.24 0.6,0.04 1.24,-0.12 -0.44,-0.12 -1.56,-0.12 0.96,0 1.28,-0.24 0.48,0.04 1.44,-0.12 -0.96,-0.12 -2.76,-0.36 0.64,0 1.04,-0.12 -0.28,-0.08 -0.52,-0.12 -0.4,-0.12 -0.4,-0.64 0.28,-0.04 0.84,-0.2 -0.32,-0.16 -0.72,-0.12 3.04,0 4.96,-0.16 -0.12,-0.08 -5.12,-0.08 0.32,0 1,-0.28 -0.04,-0.08 -0.28,-0.16 -0.24,-0.12 -0.24,-0.2 0,-0.04 0.16,-0.08 0.16,-0.08 0.68,-0.24 -0.44,-0.08 -1.16,-0.24 0.84,0.04 1.68,-0.12 -0.56,-0.12 -1.64,-0.12 1.08,0.04 1.84,-0.12 -0.56,-0.12 -1.92,-0.12 1,0.04 1.8,-0.12 -0.28,-0.16 -0.84,-0.12 0.44,0 0.76,-0.12 -0.28,-0.12 -1.12,-0.12 3.4,0 5.04,-0.12 -2.24,-0.04 -4,-0.16 -1.4,-0.08 -1.6,-0.08 0.76,0.04 2.72,-0.24 -1.12,-0.16 -2.52,-0.12 1.2,0.04 2.28,-0.12 -0.36,-0.04 -1.12,-0.08 -0.72,-0.08 -1.08,-0.16 0.8,0.04 1.68,-0.12 -1.72,-0.36 -1.72,-0.36 0.68,0.08 1.36,-0.12 -0.08,-0.04 -1.56,-0.36 1.36,0.08 2.4,-0.12 -0.76,-0.12 -2.2,-0.12 0.72,0.08 1.36,-0.12 -0.4,-0.08 -1.48,-0.4 0.44,0 1.48,-0.32 -0.32,-0.08 -0.88,-0.28 -0.08,-0.24 -0.76,-0.28 0.24,-0.08 2.44,-0.36 -0.76,-0.16 -2.2,-0.12 0.6,0.04 1.2,-0.12 -0.4,-0.12 -1.4,-0.36 0.32,0 1.24,-0.24 -0.28,-0.16 -1,-0.12 0.44,0 0.92,0 0.52,0 0.6,-0.2 0.4,-0.04 1.08,-0.16 -0.68,-0.2 -1.76,-0.12 0.48,0 0.64,-0.16 0.44,0.04 0.76,-0.2 -0.72,-0.04 -1.92,-0.28 0.16,-0.12 0.16,-0.16 0,0 -0.24,-0.08 -0.24,-0.08 -0.36,-0.24 0.76,0.04 2.24,-0.08 -0.52,-0.12 -1.92,-0.12 0.2,0.04 0.64,-0.12 -0.12,-0.12 -0.68,-0.36 0.4,-0.08 1.16,-0.12 0.76,-0.04 1.12,-0.12 -0.36,-0.04 -1.16,-0.12 -0.8,-0.08 -1.16,-0.12 0.6,0.04 0.92,-0.12 -0.2,-0.04 -0.56,-0.16 0.04,-0.2 -0.4,-0.2 0.48,0.04 1.08,-0.12 -0.52,-0.04 -1.12,-0.36 0.12,-0.04 2.44,-0.36 -1,0.08 -2.36,-0.24 -0.08,-0.04 -0.08,-0.04 0,-0.04 0.36,-0.16 0.36,-0.16 0.64,-0.36 -0.32,-0.16 -0.88,-0.16 1.52,0 2.4,-0.12 -0.8,-0.08 -2.52,-0.08 0.2,0.04 0.64,-0.16 -0.36,-0.36 -0.36,-0.44 0.32,-0.04 0.96,-0.24 -0.52,-0.16 -1.32,-0.12 0.92,-0.2 3.56,-0.6 -1.04,-0.08 -3.52,-0.36 1,0.04 1.84,-0.12 -0.28,-0.08 -0.88,-0.12 -0.56,-0.08 -0.88,-0.12 0.84,0.04 1.68,-0.12 -0.64,-0.12 -1.72,-0.4 0.32,0.08 0.8,-0.08 -0.12,-0.16 -0.76,-0.12 0.72,-0.08 2.16,-0.24 -0.24,-0.12 -1.16,-0.12 -0.68,-0.04 -0.92,-0.36 0.4,-0.08 1.2,-0.24 -0.36,-0.08 -0.84,-0.28 1.56,0 2.24,-0.08 -0.64,-0.04 -1.68,-0.12 -1,-0.08 -1,-0.88 l -4.44,20.76 -8.88,0 q 0.56,-0.04 1.56,-0.16 -0.24,-0.08 -0.76,-0.12 -0.48,-0.08 -0.68,-0.16 1.24,0 2.6,-0.32 -0.72,-0.08 -1.96,-0.16 0,-0.32 -0.64,-0.32 0.36,-0.12 1.2,-1.04 0.2,-0.12 0.2,-0.16 0,-0.04 -0.36,-0.08 -0.36,-0.08 -0.56,-0.2 0.76,0.08 1.36,-0.08 -0.48,-0.16 -1.48,-0.12 0.56,-0.08 1.72,-0.24 -0.52,-0.2 -1.48,-0.12 l 1.68,-0.16 q 0.04,-0.16 -0.24,-0.16 -0.28,-0.04 -0.52,-0.08 0,-0.16 -0.72,-0.52 l 4.32,0 q 0.08,-0.2 -0.48,-0.24 0.44,0.04 -3,0.04 -0.44,0 -0.84,-0.56 0.64,-0.08 1.88,-0.12 1.28,-0.04 1.92,-0.12 -1.16,-0.16 -2.68,-0.12 0.84,0 3.8,-0.24 -0.12,-0.08 -4.76,-0.08 1.08,-0.36 2.76,-0.52 -2.8,-0.28 -6.44,-0.76 0.64,-0.16 2.88,-0.08 2.36,0.12 3,0 -0.24,-0.24 -0.88,-0.24 -0.6,0 -0.76,-0.24 0.32,-0.24 1.44,-0.24 0.8,0 1.6,0 0.32,-0.04 0.56,-0.08 -1.32,-0.2 -3.24,-0.12 0.4,-0.04 0.8,-0.08 0.4,-0.04 0.52,-0.32 -0.12,-0.12 -0.72,-0.16 -0.56,-0.04 -0.76,-0.16 0.44,-0.36 1.24,-0.36 1.08,0 1.4,-0.12 -0.44,-0.08 -1.32,-0.12 -0.88,-0.08 -1.32,-0.12 0.68,0 1.56,-0.28 -0.16,-0.24 -0.56,-0.2 -0.68,0 -0.8,0 0.4,-0.08 1.32,-0.24 -1.52,-0.16 -3.36,-0.44 1.36,-0.04 2.8,-0.32 2.68,0 3.4,-0.08 -0.92,-0.12 -3.24,-0.12 0.16,0.04 0.64,-0.12 -0.36,-0.08 -0.96,-0.4 2.04,0 2.84,-0.08 -1.56,-0.64 -3,-0.6 1.08,-0.08 3.04,-0.24 -0.44,-0.04 -2.68,-0.12 -2.2,-0.08 -2.64,-0.12 2.64,0.16 4.2,-0.12 -0.28,-0.16 -0.88,-0.12 0.44,0 0.76,-0.12 -0.44,-0.12 -1.4,-0.12 1.28,0 1.92,-0.12 -2.68,-0.24 -5.8,-0.6 0.08,-0.24 2.04,-0.52 2,-0.32 2.04,-0.56 0.36,-0.04 1.08,-0.24 -0.48,-0.24 -0.8,-0.24 0.68,0 1,-0.08 -0.44,-0.08 -1.12,-0.28 0.76,0 1.56,-0.28 -0.28,-0.16 -1.48,-0.16 0.08,-0.04 0.36,0 0.28,0.04 0.36,0.04 0.12,-0.04 -0.08,-0.2 -0.2,-0.16 0,-1 0.04,-0.12 1.2,-0.16 0.48,0 0.72,-0.12 -2.88,-0.12 -6.28,-0.4 2.72,-0.04 6.12,-0.2 -0.52,-0.16 -1.2,-0.12 0.16,0.04 0.64,-0.12 -0.08,-0.16 -0.56,-0.12 1.2,0 1.96,-0.12 -0.8,-0.04 -2.32,-0.24 0.04,-0.2 0.68,-0.48 -0.36,-0.08 -0.84,-0.28 0.72,0.04 1.04,-0.08 -0.28,-0.04 -0.8,-0.28 0.16,-0.08 1.08,-0.32 -0.12,-0.12 -1,-0.12 1.24,0.16 2.32,-0.36 -0.64,-0.12 -1.68,-0.28 0.24,-0.08 0.24,-0.12 0,0 -0.32,-0.08 -0.32,-0.08 -0.4,-0.24 -3.28,-0.28 -4.2,-0.4 l 0,0 q 0.4,-0.04 0.8,-0.08 0.52,0.04 4.28,0.16 2.84,0.12 3.56,0.08 -1.28,-0.12 -3.84,-0.12 0.8,0.04 1.64,-0.12 -0.72,-0.04 -2.04,-0.24 0.68,0.04 1.08,-0.12 -0.36,-0.04 -1,-0.2 0.24,-0.08 0.8,-0.28 -0.28,-0.12 -0.72,-0.12 0.44,0 0.96,-0.2 -0.4,-0.24 -0.92,-0.24 0.44,0 0.76,-0.4 0.48,0.08 0.92,-0.24 -0.04,-0.2 -1.44,-0.2 1.44,-0.2 4.6,-0.48 -1.36,-0.08 -4,-0.24 2.72,0 4.24,-0.24 -1.48,-0.12 -4.32,-0.12 0.68,0.04 1.52,-0.12 -3.4,-0.08 -7.44,-0.32 0.2,-0.28 3.2,-0.28 1.76,0 3.52,0 0.84,-0.04 1.04,-0.12 -0.52,-0.04 -1.28,-0.28 0,-0.24 -0.2,-0.4 -0.16,-0.2 -0.16,-0.36 0,-0.12 0.08,-0.32 l 4.12,-0.2 q -0.08,-0.12 -4.32,-0.12 0.36,0.04 0.96,-0.28 0.48,0.08 0.8,-0.16 -0.28,-0.08 -3.32,-0.28 -2.88,-0.2 -3.44,-0.2 0.28,-0.28 3.24,-0.4 2.96,-0.12 3.16,-0.24 -0.48,-0.24 -0.76,-0.24 0.36,0 1,-0.24 -0.36,-0.04 -1.16,-0.2 0.04,-0.04 0.48,-0.08 0.32,-0.08 0.48,-0.4 -0.12,-0.24 -0.48,-0.28 0.84,0.08 1.52,-0.08 -0.52,-0.2 -1.32,-0.12 0.36,-0.08 1.2,-0.12 0.84,-0.08 1.24,-0.16 -0.48,-0.12 -3.84,-0.08 -4.24,0.04 -3.96,0.04 l 18.28,-0.32 -0.4,14.56 q 1.16,0.16 2.12,0.04 -0.64,-0.2 -1.76,-0.12 0.16,0.04 0.6,-0.12 -0.04,-0.08 -0.28,-0.12 -0.2,-0.08 -0.24,-0.16 0.64,0.04 0.92,-0.08 -0.12,-0.12 -0.68,-0.12 0.96,0 1.6,-0.12 -0.56,-0.12 -1.56,-0.36 1.24,0 1.96,-0.12 -0.56,-0.12 -1.72,-0.36 1,0.04 1.84,-0.12 -0.48,-0.12 -1.76,-0.08 0,0 0.12,-0.68 1.52,-0.04 4.72,-0.44 -0.6,-0.04 -2,-0.12 -1.4,-0.08 -2,-0.12 0.68,0.04 1.08,-0.12 -0.44,-0.12 -1.24,-0.12 2.56,0 4,-0.12 -0.16,-0.04 -2.52,-0.12 -0.92,-0.04 -1.4,-0.28 l 1.16,-0.24 q 0.4,-0.08 1.16,-0.32 -0.64,-0.16 -2.08,-0.12 1.16,-0.04 3.48,-0.24 -1.08,-0.16 -2.64,-0.08 0.2,0.04 0.6,-0.12 -0.44,-0.16 -1.24,-0.16 0.92,0 2.84,-0.24 -0.2,-0.12 -1.56,-0.12 -0.92,0 -0.96,-0.32 l 5.36,-0.28 q -1.92,-0.04 -5.08,-0.52 0.16,-0.12 0.72,-0.12 0.56,-0.04 0.8,-0.16 -0.56,-0.16 -1.16,-0.12 0.56,0.04 1.2,-0.12 -0.8,-0.24 -1.44,-0.24 0.28,-0.2 1,-0.52 -0.08,-0.12 -0.56,-0.08 0.56,0 1.04,-0.12 -0.28,-0.08 -0.84,-0.24 1.12,0 1.52,-0.12 -0.44,-0.04 -1.4,-0.36 1.36,0 2.28,-0.24 -0.8,-0.12 -2.16,-0.36 0.24,-0.08 2.48,-0.36 -0.36,-0.04 -1.2,-0.12 -0.8,-0.08 -1.16,-0.12 0.8,0.04 1.68,-0.12 -0.2,-0.04 -0.72,-0.12 -0.52,-0.08 -0.72,-0.12 0.44,-0.04 1.36,-0.12 0.92,-0.08 1.36,-0.12 -0.6,-0.04 -1.72,-0.12 -0.52,-0.04 -0.88,-0.24 0.48,-0.12 1.72,-0.36 -0.36,-0.08 -1.16,-0.24 0.92,0 1.56,-0.24 -0.16,-0.08 -0.84,-0.08 -0.48,0 -0.68,-0.36 0.2,-0.2 0.68,-0.28 0.52,-0.08 0.56,-0.12 -0.08,-0.12 -0.56,-0.12 0.44,0 0.76,-0.08 -0.44,-0.16 -1.24,-0.16 1.88,0 2.8,-0.12 -0.8,-0.12 -2.16,-0.36 0.68,0.04 1.36,-0.12 -0.28,-0.32 -0.84,-0.36 -0.44,0 -0.88,0 0.84,0 1.36,-0.12 -0.12,-0.12 -0.96,-0.28 l 13.24,0 -6.76,31.84 z" />
    </g>
    <path
       transform="matrix(0.53288019,-0.33887112,0.33887112,0.53288019,-169.61591,-147.55532)"
       d="m 429.37946,883.05719 -25.02942,13.25654 -23.99522,-15.04785 1.03421,-28.30439 25.02943,-13.25654 23.99521,15.04785 z"
       id="path4600-9-1"
       style="opacity:0.97000002;fill:#000000;fill-opacity:1;stroke:#000000;stroke-width:1.60802853;stroke-miterlimit:4;stroke-dasharray:none;stroke-dashoffset:0;stroke-opacity:1" />
  </g>
</svg>
